<svg width="81" height="81" viewBox="0 0 81 81" fill="none" xmlns="http://www.w3.org/2000/svg">
<path fill-rule="evenodd" clip-rule="evenodd" d="M0.000994725 14.1465C0.00198945 27.4874 0.00909463 28.2992 0.125548 28.4026C0.242855 28.5066 0.242855 28.5164 0.124767 28.597C0.00674992 28.6777 0.000426311 30.0141 0.000426311 54.841V81H9.69309C17.3807 81 19.3932 80.979 19.4216 80.8988C19.4502 80.8178 19.4585 80.8178 19.463 80.8988C19.4675 80.9792 21.2598 81 28.1724 81H36.8763L36.8808 80.8178L36.8853 80.6355L36.9495 80.8178L37.0138 81H49.0636C57.0786 81 61.0986 80.9729 61.0694 80.919C61.0453 80.8745 61.0594 80.838 61.1007 80.838C61.1421 80.838 61.176 80.8745 61.176 80.919C61.176 80.9726 64.5269 81 71.0867 81H80.9974L80.9987 40.5L81 0H69.1044C59.6575 0 57.2004 0.020817 57.1675 0.10125C57.1343 0.18225 57.1177 0.18225 57.0846 0.10125C57.0515 0.020493 51.2694 0 28.5216 0H0L0.000994725 14.1465ZM69.2983 0.22275C69.3152 0.256203 69.3035 0.3564 69.272 0.4455C69.2406 0.5346 69.2126 0.564894 69.2098 0.512892C69.2071 0.460809 69.1854 0.360612 69.1617 0.290142C69.1191 0.163701 69.2385 0.104895 69.2983 0.22275ZM80.6216 0.744228C80.599 0.808785 80.5821 0.789588 80.5787 0.695223C80.5757 0.609849 80.5924 0.562059 80.616 0.588951C80.6396 0.615843 80.6422 0.685746 80.6216 0.744228ZM80.8573 1.215C80.8573 1.25955 80.8253 1.296 80.7863 1.296C80.7472 1.296 80.7152 1.25955 80.7152 1.215C80.7152 1.17045 80.7472 1.134 80.7863 1.134C80.8253 1.134 80.8573 1.17045 80.8573 1.215ZM28.1698 7.36606C28.2168 7.45281 28.1355 8.12535 28.085 8.06776C28.0668 8.04711 28.0471 7.86356 28.0411 7.66001C28.0309 7.30847 28.079 7.19863 28.1698 7.36606ZM28.8141 7.60258C28.7883 7.73639 28.7239 7.88689 28.6708 7.93703C28.5933 8.01041 28.5814 7.9917 28.6103 7.84137C28.6572 7.59683 28.792 7.28085 28.8306 7.32483C28.8473 7.34387 28.8399 7.46885 28.8141 7.60258ZM57.4927 7.72659C57.5004 8.16067 57.7959 8.66886 58.095 8.76242C58.3581 8.84471 58.6685 8.69081 58.7211 8.45219C58.7458 8.33992 58.8446 8.1584 58.9408 8.04881C59.0368 7.9393 59.1155 7.81488 59.1155 7.77236C59.1155 7.72983 59.1516 7.695 59.1956 7.695C59.2497 7.695 59.2605 7.80346 59.229 8.02864C59.1906 8.30226 59.2009 8.35402 59.2864 8.31668C59.3436 8.29165 59.4005 8.3038 59.4128 8.34373C59.4259 8.38601 59.6133 8.38277 59.8615 8.33603C60.2723 8.25868 60.5447 8.21348 60.7319 8.19145C60.7808 8.1857 60.8207 8.12633 60.8207 8.0595C60.8207 7.8762 60.9274 7.91354 61.0303 8.13289C61.1193 8.32243 61.4602 8.47633 61.4602 8.32696C61.4602 8.28598 61.4888 8.27261 61.5238 8.29723C61.5588 8.32194 61.6075 8.28241 61.6321 8.20943C61.6566 8.13653 61.6952 8.09789 61.7178 8.12373C61.7405 8.14957 61.8415 8.13491 61.9424 8.09117C62.1278 8.01082 62.526 8.12811 62.526 8.26305C62.526 8.2974 62.6059 8.34835 62.7036 8.37629C62.8013 8.40424 62.8812 8.46288 62.8812 8.50654C62.8812 8.55028 62.9452 8.586 63.0233 8.586C63.1015 8.586 63.1654 8.54955 63.1654 8.505C63.1654 8.46045 63.21 8.424 63.2644 8.424C63.3924 8.424 63.444 8.26443 63.4001 8.00312C63.3809 7.88867 63.4002 7.77033 63.443 7.7402C63.495 7.7035 63.5207 7.81164 63.5207 8.06792V8.45041L63.8056 8.10891C63.9874 7.89102 64.1224 7.79017 64.1786 7.83019C64.2271 7.86469 64.3095 7.90034 64.3618 7.90933C64.414 7.9184 64.5162 7.987 64.5887 8.06185C64.7143 8.19137 64.724 8.18473 64.7893 7.92626C64.827 7.77681 64.8607 7.69662 64.8643 7.74814C64.8679 7.80103 64.9326 7.82339 65.0128 7.79949C65.1066 7.77146 65.1549 7.79698 65.1549 7.87458C65.1549 7.93913 65.2588 8.12827 65.3858 8.29489C65.5715 8.53837 65.6743 8.60285 65.9107 8.62391C66.1649 8.64659 66.2153 8.62326 66.284 8.45146C66.3277 8.34227 66.393 8.27374 66.4292 8.29926C66.4654 8.32477 66.5152 8.30833 66.54 8.26273C66.5647 8.21713 66.5371 8.15897 66.4787 8.13337C66.4202 8.10786 66.3771 8.01697 66.3827 7.93144C66.395 7.74643 66.4269 7.73744 66.5326 7.88932C66.6387 8.04176 66.9708 8.15751 66.8936 8.01519C66.8576 7.94877 66.8669 7.93322 66.9202 7.9708C66.9653 8.00256 67.0022 8.10194 67.0022 8.19153C67.0022 8.64416 67.7778 8.90935 67.8929 8.49609C67.9163 8.41185 67.9803 8.343 68.035 8.343C68.0944 8.343 68.1181 8.39209 68.0937 8.4645C68.0238 8.6721 68.3021 8.60512 68.5681 8.35021L68.814 8.1145L69.0541 8.28225C69.2528 8.42117 69.3179 8.43307 69.4326 8.35134C69.5359 8.27788 69.5958 8.27601 69.6677 8.34397C69.7371 8.40958 69.8041 8.41088 69.9061 8.34859C70.1125 8.22272 70.5479 8.24256 70.6716 8.3835C70.8063 8.53708 70.9101 8.53926 70.9101 8.38852C70.9101 8.2552 71.2677 8.25115 71.3531 8.3835C71.3856 8.43404 71.4057 8.4274 71.4064 8.36576C71.4069 8.31149 71.4554 8.28808 71.514 8.31368C71.5726 8.33936 71.6206 8.31757 71.6206 8.26524C71.6206 8.2083 71.6753 8.18991 71.7567 8.21931C71.8316 8.24645 71.9135 8.23049 71.9387 8.184C72.0048 8.06209 72.342 8.17833 72.4781 8.36997C72.5477 8.4679 72.6894 8.53748 72.8353 8.54526L73.0772 8.55814L73.0818 8.99951C73.0843 9.24226 73.1403 9.56391 73.2061 9.71441C73.272 9.86483 73.3258 10.0349 73.3258 10.0924C73.3258 10.1498 73.3949 10.2519 73.4792 10.3193C73.5915 10.409 73.613 10.47 73.5592 10.5467C73.5188 10.6044 73.4713 10.77 73.4537 10.9148C73.4226 11.169 73.4393 11.1914 73.6743 11.211C73.7777 11.2196 73.8085 11.3414 73.8299 11.826C73.8506 12.2923 73.8301 12.4333 73.7543 12.3469C73.7165 12.3037 73.6665 12.0875 73.6431 11.8664C73.6198 11.6454 73.5871 11.4489 73.5704 11.4297C73.5037 11.3538 73.2551 11.7826 73.2112 12.0491C73.1683 12.3097 73.2533 13.7986 73.3302 14.1345C73.3404 14.1791 73.3061 14.3249 73.2539 14.4585C73.2018 14.5922 73.166 14.8473 73.1746 15.0255C73.1835 15.2145 73.1452 15.417 73.0826 15.5115L72.9751 15.6735L72.9644 15.5115C72.9586 15.4224 72.958 15.3131 72.9632 15.2685C72.9684 15.224 72.9255 15.2564 72.8678 15.3404C72.7957 15.4456 72.7835 15.5372 72.8288 15.6336C72.8649 15.7106 72.8788 15.7916 72.8597 15.8134C72.8405 15.8352 72.821 15.9949 72.8163 16.1682C72.8114 16.3417 72.7815 16.5643 72.7496 16.663C72.6742 16.8968 72.8544 17.1182 73.0596 17.044C73.1916 16.9962 73.2004 17.0161 73.1571 17.263C73.1309 17.4123 73.0383 17.6079 72.9513 17.6974C72.8641 17.7871 72.783 17.9128 72.7708 17.9768C72.7403 18.1368 72.8253 18.4986 72.8791 18.4374C72.9405 18.3672 73.159 18.7986 73.248 19.1657C73.3074 19.4111 73.3008 19.5119 73.216 19.6595C73.1265 19.8153 73.1254 19.845 73.2093 19.845C73.3305 19.845 73.3986 20.1857 73.3124 20.3612C73.2692 20.4492 73.2948 20.5386 73.3962 20.6543C73.5207 20.7961 73.5294 20.8474 73.4554 21.0011C73.4076 21.1003 73.3777 21.2676 73.3889 21.3728C73.4017 21.4941 73.3809 21.5443 73.3319 21.5098C73.2895 21.4799 73.2548 21.3847 73.2548 21.2982C73.2548 21.2117 73.2149 21.1421 73.166 21.1436C73.0311 21.1475 72.8034 21.3678 72.7848 21.5123C72.7757 21.5829 72.7189 21.6831 72.6587 21.7351C72.5182 21.856 72.5536 22.12 72.7251 22.2301C72.949 22.374 73.0423 22.4999 73.1575 22.8144C73.2605 23.0953 73.2593 23.1239 73.1413 23.2222C73.0715 23.2804 72.9719 23.328 72.9197 23.328C72.8676 23.328 72.7938 23.4215 72.7556 23.5358C72.6651 23.8072 72.6663 24.381 72.7574 24.381C72.7965 24.381 72.8285 24.4399 72.8285 24.512C72.8285 24.6079 72.8759 24.6326 73.006 24.6042C73.1037 24.5829 73.2391 24.6119 73.3071 24.6685C73.4242 24.7661 73.424 24.7796 73.3042 24.9306C73.2347 25.0181 73.1842 25.1217 73.192 25.1606C73.1999 25.1996 73.1818 25.2954 73.1518 25.3734C73.1218 25.4515 73.1218 25.6155 73.1517 25.7379C73.1815 25.8604 73.2148 26.0115 73.2256 26.0739C73.2364 26.1363 73.2874 26.2178 73.3389 26.255C73.4095 26.3062 73.3802 26.3708 73.2193 26.5187C73.102 26.6265 72.99 26.6847 72.9702 26.6482C72.9503 26.6117 72.8723 26.6334 72.7967 26.6964C72.721 26.7594 72.6794 26.811 72.7041 26.811C72.7288 26.811 72.7055 26.9067 72.6523 27.0235C72.599 27.1405 72.5744 27.2923 72.5975 27.3608C72.6272 27.449 72.612 27.4663 72.5461 27.4198C72.4891 27.3796 72.5032 27.4515 72.5826 27.6046C72.654 27.7424 72.734 27.8399 72.7605 27.8213C72.8349 27.7689 73.1768 27.9725 73.2182 28.094C73.2701 28.2462 73.1884 28.3694 73.07 28.3176C73.0116 28.292 72.9706 28.3251 72.9706 28.3978C72.9706 28.4659 72.9373 28.4981 72.8967 28.4695C72.8488 28.4358 72.8389 28.4908 72.8686 28.6256C72.8938 28.7401 72.9191 28.9249 72.9247 29.0362C72.9314 29.1662 72.973 29.2318 73.041 29.2196C73.0992 29.2091 73.1788 29.2825 73.2177 29.3828C73.2566 29.483 73.3449 29.5695 73.4137 29.5751C73.734 29.601 73.7828 29.6515 73.7167 29.8888C73.6895 29.9863 73.6277 30.0449 73.5759 30.0223C73.5251 30.0001 73.4161 30.0535 73.3336 30.1411C73.2512 30.2286 73.1837 30.278 73.1837 30.2509C73.1837 30.2237 73.1358 30.256 73.0774 30.3227C73.0153 30.3934 72.9903 30.5057 73.0171 30.5918C73.0865 30.8142 73.2652 31.0252 73.3397 30.9728C73.5023 30.8582 73.8065 30.862 73.8921 30.9796C73.9774 31.0968 73.9674 31.1191 73.841 31.093C73.8117 31.0869 73.7502 31.2236 73.7043 31.3967C73.6585 31.5698 73.6185 31.6516 73.6155 31.5784C73.6125 31.5052 73.5663 31.4262 73.5129 31.4028C73.3631 31.3373 73.2029 31.9477 73.3256 32.1163C73.403 32.2224 73.391 32.2752 73.2509 32.4453C73.1591 32.5567 73.0408 32.6289 72.988 32.6057C72.8974 32.5661 72.5833 32.8302 72.5768 32.9514C72.5752 32.9822 72.5165 33.1301 72.4464 33.2801C72.3548 33.476 72.3407 33.5773 72.3961 33.6405C72.4515 33.7037 72.4732 33.7011 72.4732 33.6312C72.4732 33.4336 72.6067 33.5416 72.6284 33.7568C72.6455 33.9268 72.6879 33.978 72.8072 33.9735C72.8931 33.9702 72.9495 33.9934 72.9324 34.025C72.8821 34.1177 73.1979 34.1809 73.3204 34.1029C73.3939 34.056 73.4711 34.0714 73.5452 34.1479C73.644 34.2499 73.6737 34.2446 73.7843 34.1052C73.8919 33.9697 73.9252 33.9627 74.009 34.0582C74.121 34.1859 74.1415 34.2965 74.0399 34.225C74.0028 34.1988 73.9354 34.2563 73.8902 34.3527C73.8363 34.4674 73.7907 34.4961 73.758 34.4358C73.6904 34.311 73.4063 34.7558 73.3506 35.0737C73.3158 35.2719 73.3284 35.3098 73.4161 35.2715C73.5542 35.211 73.6516 35.382 73.547 35.5012C73.5035 35.5508 73.4684 35.6844 73.469 35.798C73.4699 35.9611 73.4846 35.9789 73.539 35.883C73.5769 35.8162 73.6083 35.8014 73.609 35.8503C73.6105 35.975 73.4022 36.4367 73.3174 36.4964C73.274 36.5269 73.2899 36.6204 73.3586 36.7401C73.5049 36.9946 73.3727 37.2866 73.1339 37.2361C72.9856 37.2047 72.5969 37.425 72.6094 37.5333C72.6281 37.6944 72.6071 37.7498 72.5443 37.7055C72.5052 37.678 72.4732 37.7123 72.4732 37.7817C72.4732 37.8511 72.4466 37.908 72.414 37.908C72.3406 37.908 72.3322 38.1627 72.402 38.2725C72.4304 38.3171 72.4744 38.4526 72.4998 38.5739C72.5406 38.769 72.5659 38.7856 72.7202 38.7187C72.9429 38.6222 73.0189 38.7472 72.8963 39.0085C72.819 39.173 72.8231 39.2251 72.9235 39.3515C72.9887 39.4336 73.0179 39.5308 72.9885 39.5677C72.9591 39.6046 72.9917 39.6116 73.061 39.5832C73.3086 39.4819 73.0505 39.8456 72.7853 39.972C72.6471 40.0377 72.5542 40.1289 72.5789 40.1743C72.6035 40.2198 72.5913 40.257 72.5517 40.257C72.5121 40.257 72.4594 40.3801 72.4346 40.5307C72.3857 40.8277 72.5675 41.3533 72.6894 41.2674C72.7942 41.1935 72.7699 41.4462 72.6602 41.5712C72.518 41.7334 72.3529 42.3263 72.4736 42.2412C72.5061 42.2183 72.555 42.3184 72.5822 42.4635C72.6571 42.8627 72.7274 42.9186 73.1221 42.8931C73.3733 42.8769 73.4905 42.9029 73.5167 42.9805C73.5371 43.0413 73.5825 43.0709 73.6175 43.0462C73.7089 42.9818 73.6959 43.1854 73.5852 43.5475C73.4859 43.8723 73.5015 44.1 73.6175 44.0182C73.654 43.9926 73.7918 44.0121 73.9237 44.0617C74.1114 44.1323 74.1556 44.1865 74.1272 44.3106C74.106 44.4028 73.9976 44.4977 73.8682 44.537C73.6709 44.5971 73.6477 44.6346 73.6643 44.8663C73.6745 45.0102 73.6549 45.1082 73.6208 45.0841C73.5866 45.06 73.5601 45.3674 73.5618 45.7672C73.5637 46.2255 73.5929 46.4945 73.6407 46.4952C73.6831 46.4959 73.6768 46.5253 73.6264 46.5618C73.5768 46.5977 73.5448 46.7156 73.5553 46.8237C73.5699 46.9734 73.5407 47.0205 73.4331 47.0207C73.3319 47.0207 73.2806 47.09 73.253 47.2637C73.2268 47.4287 73.1753 47.5029 73.0925 47.4952C73.0254 47.4891 72.9706 47.5164 72.9706 47.556C72.9706 47.5956 73.0004 47.628 73.0369 47.628C73.119 47.628 73.1135 48.1039 73.0308 48.1622C72.9977 48.1855 72.9716 48.2662 72.9728 48.3415C72.9746 48.4476 73.0139 48.4283 73.1466 48.2563C73.3404 48.0054 73.4398 48.0799 73.318 48.3849C73.2648 48.5179 73.1918 48.5768 73.1042 48.5576C73.0308 48.5415 72.9429 48.5899 72.9082 48.6654C72.8354 48.824 72.9365 49.2005 73.0336 49.1322C73.1104 49.0781 73.2012 49.3122 73.1442 49.4173C73.1223 49.4579 73.0561 49.491 72.9972 49.491C72.9223 49.491 72.8968 49.5579 72.9126 49.7138C72.9368 49.9531 73.0811 49.9511 73.0713 49.7116C73.0681 49.6323 73.1 49.5805 73.1424 49.5964C73.242 49.6337 73.2873 49.9842 73.2008 50.0488C73.1642 50.0761 73.1145 50.3732 73.0902 50.7089C73.0524 51.2306 73.0664 51.3576 73.1864 51.5824C73.2635 51.7271 73.3744 51.8663 73.4328 51.8919C73.6024 51.966 73.5563 52.0657 73.3258 52.1235C73.1821 52.1595 73.1127 52.226 73.1127 52.3276C73.1127 52.4665 73.0015 52.6053 72.8877 52.6083C72.8617 52.6089 72.8137 52.6427 72.7811 52.6832C72.7467 52.7261 72.7591 52.7325 72.8107 52.6987C72.9294 52.6208 72.9195 52.7346 72.7907 52.9287C72.6629 53.1213 72.6519 53.7522 72.7752 53.8178C72.8454 53.8551 72.8447 53.8751 72.7722 53.9134C72.7049 53.9488 72.7011 53.9901 72.7579 54.0681C72.8116 54.1419 72.8125 54.1907 72.7609 54.2271C72.7199 54.2559 72.6864 54.3889 72.6864 54.5226C72.6864 54.6562 72.7103 54.7491 72.7397 54.7289C72.7689 54.7089 72.7974 54.9846 72.803 55.3417C72.8084 55.6988 72.8437 56.0139 72.8812 56.0418C72.9187 56.0697 72.966 56.1945 72.9863 56.3191C73.0155 56.4986 72.9734 56.6042 72.7837 56.8268C72.6521 56.9815 72.5443 57.1437 72.5443 57.1875C72.5443 57.2312 72.5193 57.267 72.4889 57.267C72.4017 57.267 72.4369 57.825 72.5308 57.9321C72.5961 58.0065 72.6153 58.0026 72.6153 57.915C72.6153 57.8243 72.6331 57.8218 72.7041 57.9028C72.753 57.9586 72.7944 58.0478 72.7961 58.1013C72.7979 58.1548 72.8459 58.1851 72.9027 58.1686C73.1297 58.1028 73.2034 58.1237 73.2224 58.2589C73.2333 58.3367 73.2149 58.4195 73.1815 58.443C73.121 58.4856 73.0435 58.948 73.0132 59.4461C73.0044 59.5908 72.9672 59.7338 72.9306 59.7638C72.8339 59.8431 72.7983 60.2139 72.8938 60.1465C73.0035 60.0693 72.9886 60.2365 72.858 60.5506C72.7074 60.9122 72.748 61.1145 72.9712 61.1145C73.1137 61.1145 73.1653 61.1759 73.2394 61.4338C73.2898 61.6095 73.3632 61.7972 73.4025 61.8512C73.4517 61.9187 73.4456 61.96 73.3829 61.9838C73.312 62.0108 73.3098 62.0631 73.3733 62.2219C73.423 62.3462 73.43 62.4698 73.3913 62.5395C73.3565 62.6021 73.3275 62.7199 73.3269 62.801C73.3263 62.8822 73.2779 63.0033 73.2193 63.0701C73.1606 63.1369 73.1137 63.2345 73.115 63.287C73.1162 63.3396 73.1641 63.3117 73.2215 63.2253C73.2789 63.1388 73.3258 63.1006 73.3258 63.1404C73.3258 63.1802 73.2237 63.333 73.0988 63.4799C72.9738 63.6268 72.9099 63.747 72.9566 63.747C73.0034 63.747 73.0416 63.7106 73.0416 63.666C73.0416 63.6215 73.0726 63.585 73.1105 63.585C73.1483 63.585 73.1609 63.6397 73.1384 63.7065C73.1159 63.7733 73.0529 63.828 72.9985 63.828C72.875 63.828 72.8748 63.8242 73.0189 64.2029C73.1425 64.5278 73.147 64.7734 73.0322 64.9332C72.9956 64.9842 72.9719 65.0571 72.9797 65.0952C72.9996 65.1927 72.9037 65.6235 72.8252 65.7893C72.7733 65.8988 72.7835 65.9175 72.8733 65.8782C72.9728 65.8347 72.9756 65.853 72.8962 66.0229C72.8129 66.201 72.8153 66.208 72.9243 66.1055C72.9899 66.0438 73.0396 65.9527 73.0349 65.903C73.0118 65.6619 73.1319 65.4665 73.2965 65.4772C73.4267 65.4858 73.4679 65.5347 73.4679 65.6806C73.4679 65.8413 73.4507 65.8565 73.3626 65.7731C73.275 65.6903 73.2446 65.7112 73.1828 65.8963C73.1419 66.019 73.0884 66.1562 73.064 66.2012C73.0396 66.2462 73.0532 66.2594 73.0943 66.2305C73.1772 66.1721 73.2769 66.3946 73.2172 66.5048C73.1963 66.5434 73.1368 66.5564 73.0851 66.5338C73.0132 66.5023 72.9817 66.6602 72.9515 67.2055C72.9291 67.6079 72.9401 67.9302 72.9767 67.9455C73.0124 67.9604 73.0416 68.1335 73.0416 68.3302C73.0416 68.5378 73.0747 68.688 73.1203 68.688C73.1636 68.688 73.1809 68.7415 73.1589 68.8069C73.1369 68.8723 73.1495 68.9474 73.1869 68.9737C73.2242 69 73.2573 68.9739 73.2604 68.9155C73.2647 68.834 73.2743 68.8329 73.3018 68.9108C73.3216 68.9664 73.383 69.012 73.4383 69.012C73.4937 69.012 73.5352 69.0393 73.5306 69.0728C73.5064 69.2473 73.5502 69.269 73.6433 69.1287C73.7406 68.982 73.7478 68.9813 73.7499 69.118C73.7512 69.1986 73.7782 69.2462 73.8102 69.2237C73.8421 69.2012 73.9255 69.2935 73.9956 69.4287C74.0889 69.6089 74.1019 69.6986 74.0442 69.7645C74.0008 69.814 73.9653 69.8235 73.9653 69.7857C73.9653 69.7479 73.8713 69.8291 73.7564 69.9662C73.6285 70.1188 73.5346 70.1784 73.5142 70.12C73.4959 70.0674 73.4991 70.1673 73.5212 70.3419C73.5555 70.6118 73.5442 70.6516 73.4459 70.6086C73.3517 70.5674 73.3322 70.6111 73.3398 70.8452C73.3451 71.0031 73.3182 71.1565 73.2803 71.186C73.2423 71.2154 73.1721 71.3489 73.1245 71.4825C73.0681 71.6407 72.9446 71.7703 72.7708 71.8538C72.5567 71.9567 72.4839 72.0507 72.4036 72.3281C72.3484 72.5185 72.2617 72.6925 72.2107 72.7148C72.1597 72.7371 72.1175 72.8334 72.1169 72.9289C72.116 73.0622 72.101 73.0759 72.0524 72.9884C72.0176 72.9256 72.0053 72.8258 72.0252 72.7668C72.0468 72.7026 71.9832 72.6254 71.8679 72.5754C71.6219 72.4688 71.4859 72.5841 71.5322 72.86C71.552 72.9778 71.5331 73.062 71.4868 73.062C71.4431 73.062 71.4045 73.0347 71.4008 73.0013C71.3971 72.9678 71.3868 72.8312 71.378 72.6975C71.3691 72.5639 71.3367 72.3907 71.306 72.3128C71.2423 72.1512 70.9817 72.1188 70.9801 72.2723C70.9793 72.3443 70.9639 72.3471 70.9268 72.2822C70.8901 72.2182 70.7436 72.2116 70.435 72.2602C70.1933 72.2982 69.8648 72.3167 69.7051 72.3012C69.4942 72.2808 69.3972 72.3086 69.3511 72.4027C69.2934 72.5202 69.275 72.5192 69.1518 72.392C68.9944 72.2296 68.7101 72.2052 68.7019 72.3533C68.6974 72.4343 68.6891 72.4343 68.6604 72.3533C68.611 72.2136 68.4593 72.2264 68.3477 72.3797C68.2815 72.4706 68.2774 72.5233 68.3335 72.5628C68.3856 72.5996 68.3926 72.7139 68.354 72.9009C68.2887 73.2176 68.2554 73.1466 68.2205 72.6165C68.211 72.4717 68.159 72.4545 67.7304 72.4545C67.4667 72.4545 67.211 72.484 67.1621 72.52C67.1072 72.5606 67.0724 72.5451 67.0711 72.4795C67.0698 72.4141 67.0412 72.4278 66.9965 72.5153C66.8893 72.7253 66.7647 72.6879 66.6582 72.4135C66.6062 72.2796 66.5303 72.1936 66.4895 72.2224C66.4477 72.2518 66.4296 72.2259 66.448 72.1628C66.466 72.1014 66.406 71.9842 66.3148 71.9024C66.0773 71.6895 65.6023 71.7343 65.354 71.9932L65.1624 72.193L65.1172 71.9872C65.0603 71.7292 64.7996 71.6243 64.7996 71.8594C64.7996 71.947 64.7673 71.9958 64.7277 71.9679C64.6877 71.9397 64.6362 72.0294 64.6114 72.1704L64.567 72.4236L64.2899 72.0948C64.1375 71.914 63.966 71.766 63.9088 71.766C63.8517 71.766 63.8049 71.7354 63.8049 71.698C63.8049 71.6175 63.4412 71.6313 63.3205 71.7163C63.2743 71.7489 63.2365 71.8302 63.2365 71.8971C63.2365 71.9648 63.2019 71.9942 63.1583 71.9635C63.1028 71.9244 63.1033 71.9576 63.16 72.0784C63.2245 72.2157 63.2207 72.24 63.1405 72.2049C63.0638 72.1713 63.0452 72.2376 63.0589 72.4965L63.0767 72.8314L62.8672 72.5417C62.6768 72.2784 62.45 72.1274 62.5659 72.3411C62.6006 72.4051 62.5749 72.4062 62.4744 72.3449C62.3227 72.2523 62.1707 72.3558 62.1707 72.5517C62.1707 72.6096 62.1377 72.657 62.0974 72.657C62.057 72.657 61.9951 72.739 61.9598 72.8393C61.9132 72.9713 61.8942 72.9838 61.891 72.8845C61.8886 72.8092 61.9185 72.725 61.9576 72.6975C61.9966 72.67 62.0286 72.5904 62.0286 72.5208C62.0286 72.4174 62.0091 72.4127 61.922 72.495C61.8484 72.5647 61.8155 72.5677 61.8155 72.5049C61.8155 72.3802 61.4799 72.3895 61.4394 72.5153C61.4143 72.5934 61.3865 72.5946 61.3173 72.5204C61.2478 72.446 61.202 72.4538 61.113 72.5552C61.0075 72.6755 60.9966 72.6752 60.9756 72.5514C60.9468 72.381 60.7104 72.4145 60.5872 72.6065C60.5016 72.74 60.4838 72.7375 60.2854 72.5631C60.1533 72.447 60.1116 72.4306 60.1735 72.5193C60.2603 72.6434 60.2579 72.6543 60.1538 72.6088C60.0757 72.5746 59.9683 72.6364 59.8403 72.7892C59.5914 73.0861 59.5264 73.0972 59.4177 72.8607C59.3307 72.6713 59.1144 72.6291 58.9228 72.7641C58.8787 72.7951 58.7945 72.7655 58.7355 72.6982C58.6765 72.631 58.5974 72.576 58.5597 72.576C58.5221 72.576 58.4723 72.5199 58.4492 72.4513C58.4223 72.3713 58.3365 72.3349 58.2107 72.35C58.0606 72.3679 58.0188 72.3417 58.0336 72.2386C58.0444 72.1645 57.9595 72.0278 57.8451 71.9349C57.619 71.7514 57.4719 71.7067 57.6092 71.8632C57.6561 71.9167 57.6944 72.0141 57.6944 72.0798C57.6944 72.1682 57.6513 72.1529 57.5278 72.0208C57.3456 71.8256 57.1267 71.857 57.125 72.0784C57.1241 72.1837 57.1111 72.1886 57.0629 72.1019C56.9959 71.9813 56.7893 72.0672 56.5335 72.3221C56.4616 72.3937 56.3656 72.4564 56.3203 72.4613C56.275 72.4662 56.1819 72.4759 56.1135 72.4827C56.0452 72.4894 55.9892 72.5497 55.9892 72.6165C55.9892 72.6833 55.9559 72.738 55.9152 72.738C55.8033 72.738 55.4515 73.0833 55.4009 73.2428C55.3747 73.3255 55.3388 73.3256 55.2169 73.2436C55.1116 73.1726 55.0655 73.1692 55.0655 73.232C55.0655 73.2817 55.0215 73.3031 54.9676 73.2795C54.9138 73.2559 54.8379 73.2729 54.799 73.3172C54.7521 73.3707 54.7116 73.3223 54.6789 73.1734C54.6438 73.0141 54.6127 72.9799 54.5717 73.0555C54.5265 73.1388 54.481 73.1246 54.3634 72.9906C54.2806 72.8962 54.1809 72.819 54.1419 72.819C54.1028 72.819 54.0708 72.7731 54.0708 72.717C54.0708 72.5824 53.8544 72.4331 53.6978 72.4596C53.6294 72.4712 53.5734 72.4535 53.5734 72.4204C53.5734 72.3254 53.3128 72.372 53.1889 72.4891C53.0956 72.5774 53.0466 72.5726 52.8965 72.4605C52.7974 72.3865 52.736 72.2896 52.76 72.2452C52.805 72.1622 52.4608 71.8082 52.3314 71.8044C52.2916 71.8032 52.2202 71.7745 52.1727 71.7406C52.1236 71.7055 52.0308 71.7412 51.9566 71.8238C51.8851 71.9034 51.764 71.9802 51.6875 71.9943C51.5203 72.0254 51.3582 72.2441 51.4192 72.3566C51.4432 72.401 51.4736 72.5414 51.4865 72.6687C51.4995 72.7959 51.5243 72.9889 51.5416 73.0976C51.5617 73.2238 51.5429 73.2847 51.4897 73.2663C51.4439 73.2505 51.3185 73.2156 51.211 73.1887C51.0665 73.1526 51.0156 73.0912 51.0156 72.9525C51.0156 72.6762 50.9468 72.6432 50.7462 72.8231C50.5669 72.9839 50.5667 72.9839 50.4298 72.8164C50.3149 72.6757 50.2749 72.6657 50.1814 72.7541C50.1202 72.8121 50.059 72.8504 50.0454 72.8393C50.0319 72.8281 49.9809 72.8196 49.932 72.8202C49.8672 72.8211 49.8694 72.8404 49.9403 72.8916C50.0127 72.9439 50.0184 73.0002 49.9629 73.1131C49.8835 73.2742 49.8437 73.2161 49.7941 72.8671C49.7618 72.6399 49.528 72.6331 49.4532 72.8573C49.3813 73.073 49.4343 73.386 49.5428 73.386C49.5834 73.386 49.5636 73.4527 49.499 73.5341C49.4343 73.6156 49.3814 73.725 49.3814 73.7771C49.3814 73.9258 49.3254 73.8927 49.0696 73.5924C48.8982 73.3911 48.8404 73.2592 48.8634 73.1217C48.8827 73.0068 48.8493 72.887 48.7796 72.821C48.679 72.7258 48.6582 72.7353 48.6219 72.8935C48.5897 73.034 48.5649 73.051 48.5135 72.9676C48.4614 72.8831 48.439 72.8816 48.4109 72.9608C48.3911 73.0164 48.2797 73.062 48.1634 73.062C48.0383 73.062 47.9702 73.0284 47.9966 72.9797C48.0212 72.9344 48.0689 72.9168 48.1027 72.9407C48.1364 72.9645 48.1524 72.883 48.1382 72.7597C48.1239 72.6364 48.109 72.4991 48.1051 72.4545C48.1012 72.41 48.0541 72.4394 48.0004 72.5201C47.9333 72.6211 47.8874 72.638 47.8529 72.5743C47.8239 72.5209 47.7284 72.5032 47.6269 72.5322C47.5214 72.5624 47.468 72.5512 47.4935 72.5042C47.5347 72.4283 46.7924 72.2735 46.6459 72.3274C46.6068 72.3418 46.5269 72.352 46.4683 72.3501C46.4097 72.3481 46.3137 72.3677 46.2551 72.3936C46.1241 72.4513 46.0614 72.4718 45.9757 72.4849C45.9392 72.4905 45.8898 72.5655 45.8658 72.6517C45.8358 72.7595 45.7735 72.7983 45.6657 72.7762C45.5134 72.745 45.5129 72.7475 45.647 72.8626C45.7627 72.9619 45.7662 72.981 45.6689 72.981C45.6051 72.981 45.5329 72.944 45.5084 72.8987C45.4838 72.8534 45.434 72.8373 45.3976 72.863C45.3612 72.8886 45.3314 72.8719 45.3314 72.8258C45.3314 72.771 45.2728 72.7674 45.1617 72.8156C45.0114 72.8807 44.9954 72.8689 45.0214 72.7123C45.0508 72.5363 45.0506 72.5363 44.9672 72.7178C44.9211 72.8179 44.8385 72.9 44.7835 72.9C44.7286 72.9 44.7033 72.8636 44.7275 72.819C44.7517 72.7745 44.7375 72.738 44.6962 72.738C44.6548 72.738 44.6209 72.6807 44.6209 72.6108C44.6209 72.3861 44.2455 72.0927 44.1599 72.2504C44.1384 72.2902 44.0269 72.3761 43.9122 72.4414L43.7037 72.56L43.7444 72.3275C43.7964 72.0314 43.7279 71.8156 43.6089 71.9003C43.5598 71.9353 43.4836 71.9702 43.4396 71.9778C43.3956 71.9855 43.2962 72.0147 43.2187 72.0427C43.1328 72.0738 43.0428 72.0455 42.9881 71.9704C42.9387 71.9025 42.8079 71.847 42.6973 71.847C42.5843 71.847 42.4676 71.7884 42.4306 71.713C42.2837 71.4137 41.9894 71.83 41.976 72.3562C41.9728 72.4803 41.9432 72.6009 41.9101 72.6242C41.877 72.6475 41.8499 72.7395 41.8499 72.8286C41.8499 72.9177 41.8199 72.9694 41.7833 72.9437C41.7457 72.9171 41.7309 72.9862 41.7494 73.1023C41.7795 73.2916 41.7652 73.3046 41.571 73.2656C41.4181 73.2349 41.3391 73.2623 41.2843 73.3653C41.2226 73.481 41.2167 73.4662 41.2524 73.286C41.2896 73.0986 41.2671 73.0517 41.1067 72.9822C40.8571 72.8741 40.8552 72.8746 40.8552 73.0572C40.8552 73.2603 40.7247 73.3529 40.6696 73.1891C40.6462 73.1197 40.5985 73.0831 40.5635 73.1078C40.5286 73.1324 40.4999 73.1171 40.4999 73.0738C40.4999 72.9051 40.1128 73.1155 40.0651 73.3102C40.0166 73.5078 40.0009 73.4055 39.9684 72.6824C39.9589 72.4719 39.79 72.09 39.7063 72.09C39.6739 72.09 39.6473 72.0365 39.6473 71.971C39.6473 71.8986 39.6057 71.8703 39.5407 71.8987C39.4784 71.926 39.4337 71.8996 39.4331 71.8354C39.4324 71.769 39.4113 71.7576 39.3798 71.8065C39.3511 71.8511 39.2636 71.8875 39.1855 71.8875C39.1073 71.8875 39.0187 71.8511 38.9887 71.8065C38.9256 71.7134 38.6526 72.0464 38.6526 72.2164C38.6526 72.4329 38.4285 72.4822 38.1861 72.3191C38.0333 72.2164 37.9387 72.1927 37.9079 72.2495C37.8822 72.2969 37.8336 72.3162 37.8 72.2925C37.7663 72.2688 37.7183 72.287 37.6934 72.333C37.6684 72.379 37.6183 72.3957 37.5819 72.37C37.5455 72.3444 37.5158 72.3574 37.5158 72.3989C37.5158 72.4403 37.3719 72.4633 37.196 72.45C37.0202 72.4365 36.8763 72.4594 36.8763 72.5007C36.8763 72.5421 36.8462 72.576 36.8093 72.576C36.7725 72.576 36.7546 72.5031 36.7697 72.414C36.7848 72.3249 36.7691 72.252 36.7349 72.252C36.7007 72.252 36.6517 72.1764 36.626 72.0842C36.5991 71.9877 36.5386 71.9341 36.4837 71.9581C36.4311 71.9811 36.3774 71.9635 36.3644 71.919C36.3514 71.8745 36.2863 71.8291 36.2198 71.8179C36.1533 71.8068 36.0792 71.7753 36.0552 71.7479C35.9958 71.6802 35.6584 71.7556 35.5463 71.8617C35.4962 71.909 35.4553 72.0467 35.4553 72.1674C35.4553 72.4637 35.4075 72.4992 35.1855 72.3679C35.0231 72.2718 34.9888 72.2729 34.9384 72.3757C34.9062 72.4413 34.8155 72.495 34.737 72.495C34.6417 72.495 34.612 72.5287 34.6476 72.5963C34.6885 72.6737 34.6769 72.6761 34.5985 72.6065C34.464 72.4869 34.0342 72.4202 34.0342 72.519C34.0342 72.5613 33.9843 72.5487 33.9234 72.491C33.8625 72.4334 33.7295 72.3761 33.6279 72.3638C33.5263 72.3514 33.4243 72.3094 33.4012 72.2705C33.2967 72.0942 33.1174 72.1064 33.0077 72.2974C32.9452 72.4061 32.859 72.495 32.816 72.495C32.7645 72.495 32.7686 72.4528 32.828 72.3712C32.9027 72.2686 32.892 72.2154 32.7659 72.0624C32.6451 71.9158 32.5399 71.8786 32.2574 71.8826C31.9361 71.8872 31.888 71.9126 31.765 72.1432C31.6901 72.2837 31.6504 72.4283 31.6769 72.4645C31.7034 72.5006 31.6771 72.4944 31.6185 72.4505C31.5598 72.4068 31.4639 72.3764 31.4053 72.3831C31.3467 72.3899 31.2588 72.3995 31.2099 72.4047C31.1611 72.4098 31.1211 72.4709 31.1211 72.5403C31.1211 72.6097 31.0891 72.644 31.05 72.6165C31.011 72.589 30.9753 72.6324 30.9708 72.713C30.9631 72.8487 30.96 72.8483 30.9283 72.7075C30.8981 72.5737 30.8785 72.5826 30.7629 72.7835C30.6908 72.9088 30.6419 73.0319 30.6542 73.057C30.6665 73.082 30.6189 73.1701 30.5483 73.2528C30.4235 73.399 30.421 73.3984 30.4591 73.2325C30.487 73.1111 30.4651 73.062 30.3834 73.062C30.3201 73.062 30.2685 73.0234 30.2685 72.9762C30.2685 72.9291 30.2365 72.913 30.1974 72.9405C30.1583 72.968 30.1264 72.9134 30.1264 72.819C30.1264 72.7234 30.0944 72.67 30.0542 72.6983C30.0145 72.7263 30.0034 72.7888 30.0296 72.8371C30.0581 72.8896 30.0442 72.9017 29.9953 72.8672C29.9502 72.8354 29.9132 72.7548 29.9132 72.6879C29.9132 72.6166 29.8793 72.5903 29.8309 72.6244C29.7746 72.6641 29.7613 72.6274 29.7888 72.5076C29.8191 72.3754 29.797 72.333 29.6976 72.333C29.6254 72.333 29.5462 72.296 29.5217 72.2507C29.4971 72.2054 29.4452 72.1908 29.4062 72.2183C29.3672 72.2458 29.3182 72.1942 29.2975 72.1038C29.2755 72.0078 29.1423 71.8856 28.9779 71.8106C28.7179 71.692 28.6803 71.6927 28.4926 71.8191C28.2763 71.9648 28.1692 72.2237 28.3041 72.275C28.3487 72.292 28.3133 72.3497 28.2255 72.4033C28.1377 72.4568 28.0659 72.4664 28.0659 72.4245C28.0659 72.3208 27.7748 72.4087 27.6231 72.5581C27.5119 72.6678 27.4937 72.6609 27.4322 72.4859C27.3949 72.3796 27.3623 72.3243 27.3598 72.3631C27.3574 72.402 27.3128 72.3936 27.2608 72.3443C27.1894 72.2768 27.1271 72.2965 27.0063 72.4249L26.8463 72.5948L26.8699 72.4031C26.888 72.2556 26.8565 72.2055 26.7326 72.1855C26.6441 72.1712 26.5878 72.1297 26.6075 72.0934C26.6271 72.057 26.5943 71.9811 26.5345 71.9244C26.4051 71.802 26.3145 71.8864 26.2698 72.171C26.2447 72.3302 26.2356 72.3128 26.2271 72.09C26.2166 71.8128 26.0799 71.4322 26.0775 71.6734C26.0769 71.7338 26.0334 71.7645 25.9807 71.7415C25.9281 71.7185 25.8067 71.7783 25.7109 71.8745C25.6152 71.9708 25.5793 72.0168 25.6313 71.9767C25.7082 71.9174 25.7111 71.9474 25.6474 72.1387C25.6043 72.2679 25.5787 72.3735 25.5906 72.3735C25.6024 72.3735 25.5646 72.4464 25.5067 72.5355C25.3999 72.6999 25.1756 72.8114 25.2583 72.659C25.3226 72.5402 24.9301 72.5089 24.6608 72.6113C24.5354 72.659 24.4659 72.6415 24.4051 72.5467C24.3592 72.4751 24.2976 72.4433 24.2684 72.476C24.2392 72.5087 24.2255 72.444 24.2381 72.3322C24.2695 72.0535 24.0866 71.7837 23.8346 71.7371C23.7194 71.7158 23.6251 71.6926 23.6251 71.6856C23.6251 71.6787 23.5571 71.6584 23.4741 71.6405C23.2567 71.5939 23.0304 71.8554 22.9934 72.196C22.9543 72.5553 22.9182 72.6265 22.7498 72.6767C22.6423 72.7087 22.6244 72.6792 22.6519 72.5157C22.6823 72.3339 22.6717 72.3238 22.5363 72.4065C22.4353 72.468 22.402 72.543 22.4332 72.638C22.4744 72.7634 22.4659 72.7659 22.3534 72.6615C22.2617 72.5764 22.2387 72.4773 22.2689 72.297C22.2918 72.1609 22.2865 72.086 22.2573 72.1305C22.1735 72.258 22.0265 72.2636 22.0265 72.1392C22.0265 72.0009 21.8341 71.9051 21.7752 72.0139C21.7516 72.0572 21.7025 72.0715 21.6658 72.0457C21.6292 72.0199 21.5801 72.0555 21.5567 72.1249C21.5333 72.1943 21.4875 72.2323 21.455 72.2093C21.4224 72.1864 21.364 72.2322 21.3251 72.311C21.2579 72.4475 21.252 72.4472 21.2043 72.3059C21.1633 72.1845 21.1075 72.1672 20.901 72.2113C20.7619 72.2411 20.6041 72.3262 20.5504 72.4005C20.462 72.5227 20.4559 72.5187 20.4861 72.357C20.5044 72.2589 20.4763 72.1131 20.4237 72.033C20.3358 71.8993 20.3241 71.9091 20.2799 72.1525C20.2534 72.2982 20.1985 72.4408 20.1579 72.4695C20.1124 72.5016 20.1014 72.4697 20.1293 72.3868C20.207 72.156 20.1116 72.0049 19.9222 72.0591C19.7851 72.0983 19.7599 72.0821 19.7952 71.9775C19.8693 71.757 19.6873 71.8328 19.5564 72.0769C19.4886 72.2033 19.3961 72.2925 19.3508 72.2751C19.2363 72.231 19.1819 72.3573 19.1708 72.6935C19.1592 73.0446 19.1284 73.0544 19.0316 72.738C18.9908 72.6044 18.9364 72.495 18.9108 72.495C18.8851 72.495 18.7716 72.6069 18.6585 72.7435C18.5019 72.9326 18.4385 72.9664 18.3933 72.8853C18.3486 72.8049 18.3337 72.8141 18.3328 72.9227C18.3319 73.0533 18.3117 73.0499 18.1193 72.8878C18.0025 72.7894 17.8883 72.6419 17.8655 72.5602C17.8428 72.4785 17.7945 72.4325 17.7582 72.4581C17.722 72.4837 17.6923 72.4659 17.6923 72.4188C17.6923 72.3716 17.6444 72.333 17.5857 72.333C17.5271 72.333 17.4792 72.2944 17.4792 72.2472C17.4792 72.2001 17.4436 72.1865 17.4001 72.2171C17.3567 72.2477 17.294 72.2227 17.2609 72.1615C17.2123 72.0719 17.1796 72.0817 17.0925 72.2119C16.9993 72.3514 16.9748 72.3569 16.9132 72.252C16.8508 72.1457 16.8418 72.1468 16.8408 72.2604C16.8402 72.3319 16.7598 72.4887 16.6621 72.6088C16.5644 72.729 16.4844 72.7864 16.4844 72.7364C16.4844 72.6863 16.4436 72.5988 16.3936 72.5419C16.3199 72.4578 16.2866 72.4581 16.2167 72.5434C16.1621 72.61 16.1564 72.6666 16.2011 72.6981C16.2467 72.7302 16.242 72.8107 16.1881 72.9252C16.1059 73.0994 16.1035 73.0983 16.0476 72.8614C16.0143 72.7203 16.0194 72.5877 16.06 72.5415C16.1508 72.438 16.1494 72.3092 16.0581 72.3735C16.019 72.401 15.9871 72.3443 15.9871 72.2473C15.9871 72.111 15.9549 72.0807 15.845 72.1134C15.767 72.1367 15.6851 72.1227 15.6632 72.0824C15.6413 72.042 15.588 72.009 15.5447 72.009C15.5014 72.009 15.4858 72.0316 15.51 72.0591C15.5999 72.1616 15.3671 72.3148 15.1825 72.2745C15.0779 72.2518 14.9923 72.269 14.9923 72.3129C14.9923 72.3568 14.8946 72.3797 14.7751 72.3639C14.6153 72.3427 14.51 72.3895 14.3774 72.5407C14.1774 72.7687 14.0562 72.7651 13.9996 72.5295C13.9789 72.4437 13.9141 72.3735 13.8555 72.3735C13.7969 72.3735 13.757 72.3279 13.7667 72.2723C13.7897 72.1414 13.5923 72.1395 13.5541 72.2703C13.5373 72.3279 13.4269 72.3611 13.2912 72.3493C13.1625 72.3381 13.0117 72.372 12.956 72.4248C12.8838 72.4931 12.8329 72.4956 12.7784 72.4335C12.724 72.3715 12.6083 72.3786 12.3756 72.4585C12.0685 72.5639 11.724 72.5448 11.724 72.4224C11.724 72.3922 11.66 72.362 11.5819 72.3553C11.5037 72.3486 11.4398 72.3738 11.4398 72.4115C11.4398 72.4491 11.3752 72.4606 11.2962 72.437C11.1883 72.4048 11.1715 72.3682 11.2285 72.2898C11.277 72.2232 11.2795 72.1678 11.2352 72.1366C11.197 72.1097 11.1411 72.1702 11.1109 72.271C11.0374 72.5165 11.0326 72.5438 11.0223 72.7785C11.0174 72.8899 10.9857 72.981 10.9519 72.981C10.9181 72.981 10.9128 72.8414 10.9402 72.6707C10.9889 72.3674 10.8895 71.8642 10.8217 72.0702C10.8032 72.1262 10.7589 72.1514 10.7232 72.1262C10.6875 72.101 10.6582 72.1191 10.6582 72.1662C10.6582 72.2134 10.6141 72.252 10.5603 72.252C10.5065 72.252 10.4214 72.3083 10.3713 72.3772C10.3212 72.4461 10.2424 72.4858 10.1963 72.4657C10.1502 72.4455 10.0702 72.4588 10.0185 72.4952C9.96202 72.5349 9.88337 72.5143 9.82113 72.4433C9.73047 72.34 9.70098 72.3425 9.58353 72.4637C9.50978 72.5397 9.42857 72.5783 9.40313 72.5492C9.37762 72.5202 9.31595 72.5351 9.266 72.5823C9.2017 72.6431 9.13072 72.6411 9.023 72.5754C8.93931 72.5243 8.82129 72.5042 8.76075 72.5306C8.70022 72.5571 8.60543 72.536 8.55015 72.4837C8.47818 72.4155 8.42773 72.4134 8.37288 72.4759C8.27717 72.585 8.1372 72.5263 7.90252 72.2783C7.77328 72.1417 7.70507 72.1137 7.66805 72.182C7.57433 72.3549 7.5555 71.8984 7.64744 71.6802C7.69775 71.5607 7.70961 71.4267 7.67544 71.3637C7.61057 71.244 7.72851 70.875 7.83175 70.875C7.86685 70.875 7.8758 70.8386 7.85164 70.794C7.82749 70.7495 7.84163 70.713 7.88298 70.713C7.92433 70.713 7.95822 70.625 7.95822 70.5172C7.95822 70.4096 7.99425 70.3078 8.0383 70.2911C8.15106 70.2482 8.20463 69.4637 8.11304 69.1952C8.07112 69.0722 8.02075 68.7696 8.00107 68.5229C7.98139 68.2762 7.94558 68.0156 7.92142 67.9439C7.89726 67.8721 7.91026 67.7903 7.95026 67.7621C7.99034 67.7339 8.00661 67.662 7.98657 67.6024C7.96646 67.5427 8.00185 67.4712 8.06523 67.4435C8.12853 67.4158 8.15923 67.3542 8.13336 67.3065C8.10757 67.2588 8.14551 67.1429 8.2177 67.049C8.28989 66.955 8.31263 66.9023 8.26815 66.9318C8.17408 66.9941 8.08974 66.518 8.18324 66.4522C8.21579 66.4292 8.2452 66.4946 8.24854 66.5975C8.25387 66.7608 8.26254 66.7545 8.31654 66.5485C8.35064 66.4186 8.36187 66.2817 8.34148 66.2441C8.32115 66.2066 8.35633 66.1532 8.41963 66.1255C8.48301 66.0978 8.51875 66.0275 8.49921 65.9693C8.4796 65.9111 8.48877 65.852 8.5196 65.838C8.55037 65.824 8.59456 65.6759 8.61765 65.509C8.65574 65.2343 8.63698 65.1856 8.42013 64.9971C8.22836 64.8303 8.15276 64.8057 8.04128 64.8736C7.93996 64.9355 7.88319 64.9315 7.83275 64.859C7.7526 64.7441 7.76162 63.8632 7.84383 63.7694C7.89634 63.7096 7.92398 63.6998 8.10793 63.6761C8.1512 63.6705 8.16726 63.6087 8.14367 63.5385C8.12008 63.4684 8.15106 63.3536 8.21266 63.2834C8.28144 63.2049 8.30744 63.0903 8.28009 62.9857C8.25565 62.892 8.22886 62.5381 8.22047 62.1991C8.21138 61.8321 8.16733 61.5305 8.11155 61.4539C8.06004 61.3831 8.01336 61.122 8.00789 60.8738C8.00085 60.5536 7.97258 60.4335 7.91069 60.4606C7.85491 60.485 7.83907 60.4522 7.86678 60.3696C7.89143 60.2964 7.86102 60.1995 7.79644 60.1457C7.70521 60.0696 7.68531 59.9112 7.69611 59.3457C7.70705 58.7727 7.69327 58.666 7.62272 58.7762C7.54463 58.8981 7.53141 58.8989 7.49269 58.7838C7.40125 58.5121 7.48871 58.2805 7.69299 58.2537C7.80113 58.2396 7.87118 58.194 7.84866 58.1525C7.82614 58.1109 7.85761 58.077 7.9185 58.077C7.9794 58.077 8.02927 58.0345 8.02927 57.9825C8.02927 57.9306 8.04974 57.9114 8.07475 57.9399C8.09976 57.9684 8.18033 57.864 8.25373 57.7078C8.38574 57.4271 8.38531 57.4128 8.21543 56.4568C8.12093 55.9249 8.00036 55.44 7.94764 55.3792C7.89484 55.3185 7.78812 55.1716 7.71047 55.0529C7.57149 54.8405 7.2477 54.7502 7.2477 54.9237C7.2477 54.9715 7.20159 55.0632 7.14518 55.1274C7.05594 55.2292 7.03334 55.2259 6.96975 55.1014C6.92961 55.0228 6.89579 55.004 6.89458 55.0598C6.89159 55.1996 6.75034 55.1882 6.75034 55.0482C6.75034 54.9861 6.70238 54.9144 6.64377 54.8887C6.52546 54.8369 6.49619 54.594 6.60824 54.594C6.64732 54.594 6.67929 54.5393 6.67929 54.4725C6.67929 54.4057 6.71126 54.351 6.75034 54.351C6.78942 54.351 6.82139 54.3944 6.82139 54.4475C6.82139 54.5005 6.86872 54.4732 6.92662 54.3867C7.01565 54.2536 7.04222 54.2476 7.09956 54.3471C7.13679 54.4118 7.15171 54.4934 7.13274 54.5285C7.11377 54.5635 7.14425 54.572 7.20053 54.5474C7.35897 54.4781 7.40452 53.9641 7.31471 53.2575C7.28188 52.9993 7.35656 52.6716 7.43983 52.7081C7.49049 52.7302 7.53191 52.7312 7.53191 52.7102C7.53191 52.6893 7.5658 52.4758 7.60723 52.2358C7.72084 51.5782 7.73839 51.273 7.66272 51.273C7.62527 51.273 7.61227 51.2404 7.63387 51.2005C7.65554 51.1606 7.62805 51.1082 7.57291 51.0841C7.51777 51.06 7.45312 51.0982 7.42924 51.1691C7.3908 51.2833 7.37524 51.2813 7.29211 51.1517C7.22696 51.05 7.18291 51.0339 7.14781 51.0988C7.07484 51.2333 6.9635 51.2134 6.9635 51.0657C6.9635 50.9963 6.99547 50.962 7.03455 50.9895C7.20586 51.1102 6.97572 50.0025 6.78409 49.7841C6.63815 49.6177 6.65336 49.4315 6.82139 49.329C6.94183 49.2555 6.9635 49.2674 6.9635 49.4072C6.9635 49.6306 7.17928 49.6209 7.35329 49.3898C7.53014 49.1547 7.55323 48.764 7.40203 48.566C7.29062 48.4202 7.29098 48.4138 7.40757 48.4622C7.47599 48.4907 7.53191 48.4825 7.53191 48.444C7.53191 48.4056 7.62421 48.2615 7.73704 48.1238C7.96575 47.8447 8.04462 47.6755 8.0729 47.4034C8.08434 47.2939 8.06253 47.2401 8.01911 47.2706C7.97272 47.3034 7.95368 47.2038 7.96682 46.9971C7.97812 46.8184 7.94991 46.6207 7.90408 46.5577C7.74798 46.3433 7.74123 45.8504 7.89193 45.6786C7.96746 45.5925 8.06317 45.522 8.10452 45.522C8.14587 45.522 8.16207 45.4894 8.14047 45.4495C8.1188 45.4096 8.15255 45.3545 8.21529 45.327C8.30922 45.286 8.31348 45.2551 8.23923 45.1531C8.17088 45.0592 8.16896 45.0064 8.2312 44.9354C8.3321 44.8204 8.33998 44.55 8.24243 44.55C8.20335 44.55 8.17138 44.4316 8.17131 44.2868C8.17131 44.1419 8.11532 43.8566 8.04697 43.6527C7.91325 43.2537 7.67942 42.9176 7.66691 43.1065C7.663 43.1653 7.63771 43.1229 7.61064 43.0121C7.57639 42.8717 7.61099 42.7124 7.72503 42.4856C7.81498 42.3068 7.90792 42.0967 7.93165 42.0188C7.95538 41.9408 7.99616 41.877 8.02224 41.877C8.14623 41.877 8.32151 41.3741 8.27739 41.145C8.25181 41.0122 8.20484 40.9219 8.17301 40.9444C8.14125 40.9667 8.09692 40.9306 8.07446 40.864C8.05208 40.7974 7.96881 40.743 7.88937 40.743C7.81001 40.743 7.74088 40.7157 7.73583 40.6823C7.73072 40.6488 7.71821 40.5122 7.70791 40.3785C7.69768 40.2449 7.68197 40.1173 7.67316 40.095C7.66428 40.0727 7.66378 39.845 7.6721 39.5888C7.68503 39.187 7.66911 39.1217 7.55621 39.1136C7.43727 39.1051 7.43663 39.1008 7.54967 39.0672C7.6181 39.0468 7.67402 38.9781 7.67402 38.9146C7.67402 38.851 7.70599 38.799 7.74507 38.799C7.78415 38.799 7.81612 38.7261 7.81612 38.637C7.81612 38.547 7.86351 38.475 7.9227 38.475C7.98131 38.475 8.03141 38.4112 8.03403 38.3333C8.03666 38.2553 8.05315 38.0275 8.07063 37.827C8.08803 37.6265 8.10992 37.3167 8.11908 37.1385C8.12832 36.9603 8.16697 36.7598 8.20506 36.693C8.24307 36.6262 8.27504 36.5168 8.27611 36.45C8.2771 36.3832 8.31114 36.3351 8.35164 36.343C8.39391 36.3513 8.42397 36.2013 8.42219 35.9911C8.4197 35.7055 8.38169 35.5903 8.24975 35.4685C8.15049 35.3768 8.02608 35.332 7.94877 35.3599C7.84468 35.3976 7.82671 35.3768 7.86316 35.2605C7.88845 35.1797 7.93755 35.0715 7.97222 35.0201C8.01144 34.9619 8.00057 34.9106 7.94344 34.8839C7.88376 34.8559 7.90451 34.8225 8.00284 34.7881C8.19752 34.7201 8.30964 34.4332 8.34936 33.9016C8.37856 33.5098 8.3672 33.47 8.20115 33.3837C8.10217 33.3324 8.03943 33.2567 8.06167 33.2158C8.12292 33.1028 7.94465 32.7126 7.85065 32.7537C7.80354 32.7743 7.71466 32.6197 7.64297 32.3924C7.57405 32.1738 7.48942 31.995 7.45489 31.995C7.38896 31.995 7.64929 31.374 7.74286 31.308C7.77264 31.2871 7.78727 31.1692 7.77541 31.0461C7.76354 30.923 7.80496 30.7578 7.86742 30.6791C7.92994 30.6004 7.95986 30.5119 7.93392 30.4823C7.90806 30.4528 7.93129 30.371 7.98558 30.3006C8.11447 30.1333 8.05507 29.6174 7.91403 29.6791C7.86017 29.7026 7.8137 29.6957 7.81065 29.6637C7.79054 29.4484 7.74471 29.2976 7.66677 29.1905C7.61739 29.1227 7.57042 28.8907 7.56232 28.675C7.54655 28.25 7.48857 28.0779 7.38569 28.1504C7.34981 28.1757 7.33943 28.1399 7.36267 28.0707C7.38675 27.9993 7.36743 27.945 7.31805 27.945C7.26042 27.945 7.24799 27.8835 7.28117 27.7628C7.30874 27.6625 7.32892 27.5003 7.32607 27.4023C7.32323 27.3042 7.35244 27.2018 7.39087 27.1748C7.47962 27.1122 7.48246 26.7548 7.39471 26.693C7.35833 26.6673 7.30853 26.6834 7.28394 26.7287C7.19527 26.8923 7.05004 26.8058 7.01984 26.5714C6.98865 26.3292 7.22106 25.8795 7.37737 25.8795C7.52388 25.8795 7.8034 25.5224 7.85122 25.2741C7.88738 25.0863 7.86784 24.9769 7.77789 24.8636C7.66222 24.7179 7.66215 24.6972 7.77654 24.4982C7.84383 24.3811 7.94046 24.306 7.99382 24.3293C8.11013 24.3802 8.26282 24.1865 8.29444 23.9478C8.30716 23.852 8.34887 23.7613 8.38702 23.7464C8.42525 23.7314 8.43839 23.6859 8.41629 23.6451C8.3942 23.6044 8.41004 23.571 8.45139 23.571C8.57758 23.571 8.5353 23.281 8.38681 23.1278C8.28883 23.0268 8.26552 22.9442 8.30879 22.852C8.40301 22.6512 8.41295 22.1776 8.32769 21.951C8.28577 21.8396 8.24939 21.7803 8.24691 21.8191C8.24449 21.858 8.1949 21.8449 8.13678 21.7899C8.07617 21.7325 7.95495 21.7117 7.85257 21.741C7.74102 21.7729 7.67402 21.7578 7.67402 21.7009C7.67402 21.6507 7.62868 21.6295 7.57334 21.6537C7.51791 21.6779 7.45418 21.6431 7.43173 21.5762C7.40921 21.5094 7.35862 21.4774 7.31925 21.5052C7.22667 21.5704 7.22902 21.5194 7.3302 21.2663C7.37553 21.1528 7.44132 21.06 7.47649 21.06C7.51159 21.06 7.51749 21.0179 7.48964 20.9664C7.45972 20.9114 7.46995 20.8948 7.5145 20.9263C7.72759 21.0764 7.88639 20.713 7.74201 20.4055C7.68744 20.2893 7.60559 20.2693 7.30149 20.2978C6.7772 20.3469 6.75034 20.3521 6.75034 20.406C6.75034 20.4324 6.68306 20.5019 6.60078 20.5605C6.51857 20.619 6.47083 20.6309 6.4947 20.5869C6.51857 20.5429 6.51388 20.4915 6.48432 20.4727C6.45477 20.4539 6.47353 20.451 6.52603 20.4661C6.57847 20.4813 6.63815 20.4206 6.65861 20.3313C6.67908 20.2421 6.72412 20.169 6.75866 20.169C6.79312 20.169 6.82139 20.1304 6.82139 20.0832C6.82139 20.0361 6.78992 20.0196 6.75141 20.0468C6.66991 20.1042 6.7372 19.6016 6.82601 19.49C6.85728 19.4507 6.94097 19.4466 7.01203 19.481C7.2163 19.5799 7.38974 19.5827 7.39087 19.4872C7.39166 19.4278 7.40885 19.4266 7.44416 19.4832C7.50783 19.5853 7.64126 19.5875 7.72141 19.4878C7.75644 19.4441 7.73988 19.441 7.68077 19.48C7.61369 19.5244 7.59763 19.5154 7.63174 19.4526C7.65959 19.4011 7.72844 19.359 7.78479 19.359C7.84113 19.359 7.88717 19.2839 7.88717 19.1922C7.88717 19.1005 7.91389 19.0442 7.9465 19.0672C8.03737 19.1312 7.92327 18.4127 7.82003 18.2708C7.77008 18.2022 7.74734 18.0921 7.76951 18.0261C7.79175 17.9601 7.78123 17.886 7.7462 17.8613C7.70933 17.8353 7.71359 17.7149 7.75622 17.5753C7.79679 17.4427 7.85875 17.3545 7.89392 17.3793C7.98124 17.4408 8.36471 17.1739 8.41565 17.0162C8.59037 16.4752 8.59151 16.424 8.43413 16.1657C8.31412 15.9687 8.23213 15.9138 8.07993 15.9286L7.88198 15.9478L7.93343 15.3246C7.98885 14.6537 7.98799 14.5941 7.91765 14.1962C7.89214 14.052 7.89591 13.8698 7.92596 13.7912C7.95602 13.7127 7.97421 13.603 7.96632 13.5473C7.95844 13.4915 7.98536 13.446 8.02615 13.446C8.06693 13.446 8.10033 13.3955 8.10033 13.3337C8.10033 13.272 8.14573 13.1217 8.20129 12.9997C8.25678 12.8777 8.28485 12.7262 8.26353 12.6629C8.2317 12.5684 8.19994 12.5737 8.08406 12.6933C7.94806 12.8336 7.94408 12.833 7.96675 12.6765C7.97968 12.5874 7.96234 12.4598 7.92824 12.393C7.87786 12.2941 7.88412 12.2904 7.96199 12.3728C8.10359 12.5225 8.13521 12.5019 8.24243 12.1905C8.29607 12.0346 8.36322 11.907 8.39157 11.907C8.47157 11.907 8.41494 11.5198 8.31469 11.3822C8.26538 11.3144 8.16498 11.259 8.09166 11.259C7.98103 11.259 7.9568 11.1932 7.94984 10.8743C7.94515 10.6626 7.94685 10.4564 7.95353 10.416C7.96028 10.3755 7.93506 10.3208 7.89762 10.2944C7.86017 10.268 7.81385 10.0824 7.79473 9.88192C7.77569 9.68153 7.75132 9.48105 7.74059 9.4365C7.70947 9.30698 7.8277 8.71746 7.90785 8.60252C7.94806 8.54485 8.02217 8.51561 8.07254 8.53764C8.12292 8.55968 8.18403 8.50613 8.2084 8.41865C8.23277 8.33125 8.28236 8.28055 8.3186 8.30606C8.35483 8.33166 8.38453 8.2876 8.38453 8.2083C8.38453 8.09174 8.40784 8.10251 8.50561 8.26419C8.768 8.69827 9.0532 8.75181 8.98762 8.35483C8.95643 8.16634 8.9651 8.17225 9.05938 8.40375C9.16255 8.65728 9.45031 8.78502 9.45031 8.57733C9.45031 8.528 9.49827 8.50864 9.55689 8.53432C9.6155 8.55992 9.66346 8.5532 9.66346 8.51926C9.66346 8.48532 9.80408 8.41477 9.97588 8.36236C10.1478 8.30995 10.3353 8.21356 10.3926 8.14828C10.504 8.02119 10.6582 8.11596 10.6582 8.31157C10.6582 8.36673 10.7319 8.40051 10.8264 8.38868C10.9544 8.37265 10.9869 8.40067 10.9627 8.50613C10.9283 8.65607 11.1183 8.7838 11.244 8.69527C11.2887 8.66376 11.2988 8.68045 11.2686 8.73609C11.185 8.89024 11.434 8.9411 11.5725 8.79814C11.6426 8.72581 11.717 8.68612 11.7379 8.70985C11.7587 8.73358 11.8314 8.65631 11.8993 8.53805C11.9673 8.41979 11.9876 8.34794 11.9445 8.37832C11.9014 8.40869 11.8661 8.38472 11.8661 8.32502C11.8661 8.26532 11.9609 8.17574 12.0767 8.12592C12.2615 8.04638 12.2927 8.05448 12.331 8.19194C12.355 8.2782 12.491 8.43267 12.6333 8.53529C12.8499 8.69162 12.929 8.70896 13.1199 8.64213C13.2688 8.59005 13.3626 8.49585 13.3902 8.37062C13.4249 8.21267 13.464 8.18789 13.6115 8.23009C13.71 8.25827 13.8771 8.28679 13.9829 8.29343C14.0887 8.30007 14.2087 8.32972 14.2497 8.35936C14.2906 8.38909 14.3695 8.38131 14.4249 8.34227C14.4857 8.2995 14.562 8.30558 14.6169 8.35758C14.6671 8.40505 14.7086 8.41201 14.7092 8.37313C14.7098 8.33433 14.7356 8.34794 14.7666 8.40351C14.8333 8.52339 15.2766 8.59823 15.2766 8.48961C15.2766 8.44822 15.3099 8.43793 15.3507 8.46669C15.3915 8.49544 15.4634 8.4837 15.5106 8.44061C15.6139 8.34608 16.133 8.27034 16.0863 8.35661C16.0682 8.38998 16.1683 8.40051 16.3087 8.38002C16.4981 8.3524 16.5517 8.36892 16.5164 8.44409C16.4903 8.4999 16.5485 8.4372 16.6459 8.30485C16.8062 8.08696 16.835 8.07554 16.9515 8.18335C17.0283 8.25447 17.0586 8.26168 17.0268 8.20125C16.9636 8.08145 17.0454 8.07116 17.195 8.18011C17.2731 8.23705 17.3343 8.20967 17.4243 8.07764C17.5064 7.9572 17.5476 7.93622 17.5486 8.01422C17.5498 8.09935 17.5806 8.08842 17.6626 7.97372C17.751 7.85003 17.7671 7.84534 17.7381 7.95153C17.6952 8.10899 17.864 8.20692 18.0576 8.13686C18.1335 8.1094 18.1897 8.12827 18.1897 8.18132C18.1897 8.23543 18.2358 8.22093 18.3013 8.14625C18.4713 7.95258 18.6868 7.9832 18.6881 8.20125C18.6889 8.33433 18.7057 8.35385 18.7503 8.27358C18.7914 8.19963 18.8268 8.19218 18.8586 8.25066C18.9253 8.37378 19.3317 8.27148 19.5112 8.08639C19.6462 7.94723 19.6693 7.9448 19.7535 8.06047C19.8048 8.13086 19.8894 8.16966 19.9418 8.14674C19.9942 8.12381 20.037 8.1354 20.037 8.17249C20.037 8.20951 20.1089 8.23357 20.1969 8.22587C20.2848 8.2181 20.4127 8.26516 20.4811 8.33045C20.575 8.42011 20.6054 8.42384 20.6054 8.34567C20.6054 8.26548 20.6282 8.26362 20.7063 8.33757C20.7859 8.4129 20.8228 8.40229 20.8818 8.28671C20.9499 8.15322 20.9566 8.15638 20.9586 8.32275C20.9608 8.51699 21.0616 8.56559 21.1446 8.41242C21.1767 8.35329 21.2303 8.39711 21.2931 8.53392C21.3943 8.75408 21.4902 8.80413 21.561 8.67372C21.5831 8.6329 21.7382 8.67842 21.9056 8.77497C22.0729 8.87153 22.2496 8.95998 22.298 8.97156C22.4192 9.00056 22.7616 8.78996 22.8831 8.6116C22.9721 8.48078 22.9656 8.48159 22.8246 8.6188C22.7373 8.70369 22.6659 8.73545 22.6659 8.68944C22.6659 8.64351 22.7139 8.56049 22.7725 8.505C22.8311 8.44952 22.8791 8.29318 22.8791 8.15759C22.8791 8.022 22.9344 7.85117 23.0021 7.77803C23.1167 7.65393 23.1372 7.66001 23.3041 7.86672C23.5299 8.14649 24.0593 8.3656 24.2414 8.25447C24.3282 8.20149 24.3712 8.20303 24.3712 8.25916C24.3712 8.30525 24.4511 8.343 24.5488 8.343C24.6465 8.343 24.7227 8.31562 24.7181 8.28225C24.6939 8.10802 24.7352 7.938 24.8017 7.938C24.843 7.938 24.8589 7.97113 24.837 8.01171C24.7596 8.15435 24.8857 8.343 25.0585 8.343C25.1545 8.343 25.2953 8.38099 25.3714 8.4274C25.4764 8.49139 25.5887 8.47187 25.8376 8.3464C26.2116 8.15775 26.2437 8.1499 26.183 8.262C26.1389 8.34341 26.2366 8.3767 26.428 8.34535C26.4846 8.33611 26.5699 8.38949 26.6178 8.46393C26.6978 8.58883 26.7105 8.58689 26.7794 8.44004C26.8205 8.35231 26.9364 8.25714 27.0367 8.22847C27.137 8.19971 27.2051 8.14998 27.1881 8.1179C27.1472 8.04071 27.3279 7.85271 27.3828 7.91532C27.4062 7.94205 27.4455 7.84931 27.4701 7.70926C27.4947 7.56921 27.5434 7.47476 27.5783 7.49938C27.6133 7.52401 27.6212 7.58241 27.5958 7.62915C27.5337 7.74368 27.4282 8.28695 27.4793 8.22863C27.5016 8.20319 27.566 8.22595 27.6222 8.27917C27.7772 8.42586 27.9944 8.4385 28.0398 8.30355C28.0725 8.2066 28.105 8.21818 28.2084 8.36374L28.3365 8.54404L28.6058 8.22077C28.7539 8.04298 28.8539 7.93776 28.828 7.98692C28.7687 8.09935 29.0459 8.24766 29.2481 8.21178C29.3559 8.19258 29.413 8.23721 29.4443 8.36511C29.488 8.54348 29.49 8.54299 29.6107 8.32275C29.7758 8.02192 29.8194 8.04241 29.7833 8.40375L29.7529 8.7075L29.9145 8.5455C30.0288 8.43089 30.0851 8.4129 30.107 8.4841C30.1311 8.56267 30.1716 8.56364 30.292 8.48864C30.3768 8.43583 30.5304 8.40197 30.6333 8.41347C30.7364 8.42489 30.9437 8.35904 31.0942 8.2671C31.3891 8.08688 31.5089 8.05553 31.4439 8.17541C31.4214 8.21688 31.4355 8.27366 31.4752 8.30169C31.5149 8.32963 31.5474 8.30833 31.5474 8.25422C31.5474 8.19161 31.5967 8.20676 31.683 8.29586C31.8117 8.42862 31.8224 8.42837 31.8894 8.29197C31.9464 8.17574 31.98 8.16715 32.0647 8.24726C32.151 8.32891 32.1776 8.31392 32.2149 8.16245C32.2553 7.99867 32.2699 7.99276 32.348 8.10818C32.3963 8.17954 32.5156 8.22976 32.6133 8.2198C32.7109 8.20984 32.8941 8.27245 33.0205 8.35904C33.1467 8.44555 33.2875 8.48993 33.3334 8.4577C33.3836 8.4223 33.3977 8.43396 33.369 8.48686C33.2848 8.64213 33.4701 8.68766 33.6079 8.5455C33.7482 8.40075 33.9245 8.44871 33.8518 8.61184C33.8283 8.66449 33.8997 8.59378 34.0105 8.4547C34.2847 8.11053 34.4605 8.04711 34.4605 8.29246C34.4605 8.49026 34.6874 8.78639 34.7683 8.69422C34.7944 8.66441 34.8158 8.67461 34.8158 8.71681C34.8158 8.8341 35.1892 8.84358 35.2609 8.72807C35.3091 8.65048 35.3322 8.64942 35.3588 8.72354C35.385 8.79668 35.4364 8.79846 35.5665 8.73083C35.6617 8.68142 35.7395 8.61038 35.7395 8.57296C35.7395 8.53562 35.8173 8.505 35.9124 8.505C36.0465 8.505 36.0919 8.45502 36.1149 8.28225C36.142 8.07845 36.1454 8.08226 36.1551 8.32737C36.1652 8.58114 36.1734 8.58908 36.3125 8.47803C36.3931 8.41363 36.521 8.37937 36.5967 8.40189C36.6892 8.42951 36.7342 8.40164 36.7342 8.31676C36.7342 8.12892 36.8504 8.0821 36.9722 8.22093C37.0562 8.31659 37.1219 8.32494 37.274 8.259C37.4207 8.19542 37.4827 8.20036 37.5265 8.27909C37.5737 8.36382 37.5848 8.36349 37.5857 8.27747C37.5863 8.21915 37.6153 8.19153 37.6501 8.21599C37.6849 8.24053 37.7683 8.16496 37.8355 8.04816C37.9237 7.89475 37.973 7.86405 38.013 7.93768C38.0434 7.99381 38.1025 8.0156 38.1444 7.98611C38.1863 7.95663 38.2777 7.97016 38.3477 8.01625C38.4963 8.11393 38.8888 8.27909 38.9288 8.26079C38.944 8.25382 38.9823 8.29586 39.0138 8.3541C39.0584 8.43631 39.0817 8.42878 39.1182 8.32048C39.1953 8.0915 39.3735 8.14617 39.3214 8.38277C39.2604 8.65947 39.4602 8.7416 39.6687 8.52557C39.8991 8.2867 40.0199 8.27042 40.167 8.45826C40.2744 8.59548 40.2915 8.60042 40.2594 8.48475C40.2378 8.40675 40.2512 8.343 40.289 8.343C40.3268 8.343 40.3583 8.3886 40.3589 8.44425C40.3596 8.50767 40.3795 8.51496 40.4122 8.46377C40.4851 8.34964 41.0504 7.938 41.1343 7.938C41.1723 7.938 41.2359 7.87425 41.2758 7.79625C41.3157 7.71833 41.3497 7.69095 41.3515 7.7355C41.3533 7.78005 41.3827 7.76612 41.4169 7.70456C41.4636 7.62056 41.5102 7.66738 41.6039 7.89256C41.7097 8.14674 41.7548 8.18513 41.8996 8.14366C42.0101 8.11207 42.1379 8.14965 42.2621 8.25017C42.4151 8.3741 42.4707 8.38496 42.5369 8.30371C42.5845 8.24539 42.7265 8.21526 42.8695 8.23324C43.0068 8.2505 43.1394 8.22693 43.1644 8.181C43.1893 8.13499 43.2388 8.1179 43.2744 8.14293C43.3099 8.16796 43.398 8.15257 43.47 8.10859C43.5707 8.04719 43.6239 8.06501 43.7003 8.18586C43.7549 8.27229 43.8379 8.343 43.8846 8.343C43.9314 8.343 43.9803 8.3788 43.9933 8.42254C44.0392 8.57669 44.4419 8.38342 44.466 8.19582C44.4785 8.09854 44.5363 8.019 44.5946 8.019C44.6528 8.019 44.6806 8.05545 44.6565 8.1C44.5749 8.2505 44.6973 8.1823 44.8774 7.97696C44.9759 7.8647 45.0836 7.79204 45.1168 7.81545C45.15 7.83886 45.193 7.81221 45.2121 7.75624C45.2314 7.70026 45.2701 7.773 45.2982 7.91775C45.3469 8.16926 45.3994 8.2164 45.5979 8.18707C45.6468 8.17978 45.6878 8.2211 45.689 8.27869C45.6922 8.41663 45.9369 8.748 46.0356 8.748C46.0782 8.748 46.113 8.79053 46.113 8.84253C46.113 8.89445 46.1332 8.91397 46.1578 8.88586C46.1826 8.85776 46.2629 8.87144 46.3365 8.91624C46.4749 9.00072 46.6956 8.91705 46.6924 8.78121C46.6915 8.74071 46.7392 8.71884 46.7983 8.73277C46.878 8.75148 46.8998 8.69964 46.8825 8.53311C46.8647 8.36195 46.8996 8.285 47.0285 8.21138C47.1217 8.15816 47.2177 8.08404 47.2417 8.04654C47.2657 8.00912 47.3531 7.91338 47.4359 7.83383C47.5834 7.69216 47.5857 7.6933 47.5524 7.89151C47.5321 8.01268 47.5635 8.1452 47.6308 8.22182C47.7331 8.33846 47.7593 8.33774 47.926 8.21316C48.0863 8.09344 48.1319 8.09052 48.2949 8.18951C48.4407 8.27804 48.4874 8.28055 48.5108 8.20125C48.5272 8.1456 48.6 8.1 48.6726 8.1C48.7452 8.1 48.8253 8.06177 48.8506 8.01503C48.879 7.9627 48.9284 7.95849 48.9792 8.00402C49.0246 8.04468 49.1336 8.07076 49.2215 8.06201C49.3094 8.05326 49.3814 8.08907 49.3814 8.14163C49.3814 8.19412 49.4949 8.3703 49.6335 8.53311C49.8277 8.76096 49.942 8.829 50.1308 8.829C50.2931 8.829 50.3761 8.79085 50.3761 8.71617C50.3761 8.57061 50.5702 8.48394 50.6119 8.61079C50.6305 8.66708 50.6648 8.63978 50.694 8.5455C50.8016 8.19833 50.9012 8.019 50.9862 8.019C51.0349 8.019 51.0905 7.97348 51.1097 7.91775C51.1289 7.8621 51.1283 7.94707 51.1083 8.10672C51.0778 8.34972 51.0932 8.39703 51.2027 8.39703C51.2747 8.39703 51.3765 8.3481 51.429 8.28824C51.4815 8.22847 51.554 8.20036 51.5903 8.22587C51.6264 8.25139 51.6752 8.21526 51.6987 8.1456C51.767 7.94254 51.8681 7.99948 51.8693 8.24175C51.8706 8.51877 51.9616 8.68984 52.1219 8.71665C52.1894 8.72799 52.2679 8.78 52.2963 8.83224C52.334 8.90182 52.361 8.90287 52.3971 8.83629C52.4243 8.78631 52.4724 8.76371 52.5043 8.78607C52.536 8.80851 52.6449 8.75245 52.7462 8.66165C52.886 8.53627 52.9244 8.43834 52.9057 8.25512C52.8884 8.08534 52.9191 7.99041 53.0094 7.93533C53.1743 7.83473 53.2382 7.8357 53.1827 7.938C53.1585 7.98255 53.1886 8.019 53.2495 8.019C53.3104 8.019 53.3603 7.98036 53.3603 7.93322C53.3603 7.88608 53.3923 7.86996 53.4313 7.8975C53.4704 7.92504 53.5024 7.8907 53.5024 7.82128C53.5024 7.75186 53.5344 7.695 53.5734 7.695C53.6125 7.695 53.6445 7.7679 53.6445 7.857C53.6445 8.00977 53.7122 8.05367 53.9056 8.02645C53.9515 8.01997 54.0094 8.05213 54.0341 8.09781C54.0589 8.14358 54.1112 8.181 54.1502 8.181C54.1893 8.181 54.2015 8.14455 54.1774 8.1C54.1532 8.05545 54.1674 8.019 54.2087 8.019C54.2501 8.019 54.284 8.07529 54.284 8.14406C54.284 8.21283 54.324 8.26038 54.3728 8.24969C54.5139 8.21883 54.7813 8.34527 54.7813 8.44295C54.7813 8.49196 54.8024 8.508 54.8281 8.47868C54.8538 8.44935 54.913 8.4615 54.9597 8.50565C55.0499 8.5911 55.5014 8.45794 55.472 8.35458C55.4634 8.32421 55.5254 8.19906 55.6098 8.07651C55.7125 7.92731 55.7755 7.8877 55.8004 7.95663C55.8208 8.01317 55.8234 7.93193 55.8061 7.776C55.7888 7.62008 55.7937 7.53826 55.817 7.59424C55.8402 7.65021 55.8862 7.67702 55.9191 7.65385C55.952 7.6306 55.9994 7.68504 56.0244 7.77479C56.0494 7.86453 56.102 7.938 56.1412 7.938C56.1804 7.938 56.2605 7.99268 56.3191 8.0595C56.3777 8.12633 56.4542 8.181 56.4891 8.181C56.5943 8.181 56.7267 7.83149 56.7116 7.59375C56.7004 7.41717 56.728 7.371 56.8449 7.371C56.926 7.371 56.9726 7.40745 56.9484 7.452C56.8868 7.56564 57.057 7.55074 57.2681 7.42389C57.3658 7.36517 57.4549 7.32443 57.4659 7.33334C57.477 7.34225 57.4891 7.51915 57.4927 7.72659ZM60.2523 7.41628C60.2523 7.4857 60.2198 7.51963 60.1801 7.49169C60.1404 7.46366 60.1263 7.40688 60.1488 7.36541C60.2097 7.25306 60.2523 7.27396 60.2523 7.41628ZM23.0922 7.452C23.0922 7.49655 23.0584 7.533 23.017 7.533C22.9757 7.533 22.9615 7.49655 22.9857 7.452C23.0098 7.40745 23.0436 7.371 23.0609 7.371C23.0782 7.371 23.0922 7.40745 23.0922 7.452ZM63.5207 7.4925C63.5207 7.55933 63.4897 7.614 63.4518 7.614C63.414 7.614 63.4015 7.55933 63.4239 7.4925C63.4464 7.42568 63.4774 7.371 63.4928 7.371C63.5081 7.371 63.5207 7.42568 63.5207 7.4925ZM69.6311 7.69978C69.6311 7.74174 69.5992 7.776 69.5601 7.776C69.521 7.776 69.489 7.71914 69.489 7.64972C69.489 7.5803 69.521 7.54596 69.5601 7.5735C69.5992 7.60104 69.6311 7.65782 69.6311 7.69978ZM58.9734 7.857C58.9734 7.90155 58.9414 7.938 58.9023 7.938C58.8633 7.938 58.8313 7.90155 58.8313 7.857C58.8313 7.81245 58.8633 7.776 58.9023 7.776C58.9414 7.776 58.9734 7.81245 58.9734 7.857ZM59.4707 7.97372C59.4707 7.9934 59.4388 8.03196 59.3997 8.0595C59.3606 8.08704 59.3286 8.07092 59.3286 8.02378C59.3286 7.97664 59.3606 7.938 59.3997 7.938C59.4388 7.938 59.4707 7.95404 59.4707 7.97372ZM50.3849 8.28363C50.3147 8.36301 50.3066 8.35369 50.3451 8.23827C50.3719 8.1584 50.4116 8.11345 50.4335 8.13839C50.4553 8.16326 50.4335 8.22863 50.3849 8.28363ZM74.2495 10.206C74.2495 10.2506 74.2175 10.287 74.1785 10.287C74.1394 10.287 74.1074 10.2506 74.1074 10.206C74.1074 10.1615 74.1394 10.125 74.1785 10.125C74.2175 10.125 74.2495 10.1615 74.2495 10.206ZM73.2979 10.6581C73.2295 10.8614 73.2478 11.1115 73.327 11.0557C73.3667 11.0277 73.3812 10.9716 73.3592 10.9311C73.3373 10.8905 73.3538 10.7837 73.3961 10.6937C73.4392 10.6019 73.444 10.53 73.407 10.53C73.3707 10.53 73.3216 10.5877 73.2979 10.6581ZM5.8018 11.0647C5.80919 11.2096 5.78965 11.2492 5.73913 11.1916C5.69871 11.1455 5.68492 11.0507 5.70844 10.9809C5.76834 10.803 5.78951 10.822 5.8018 11.0647ZM8.14516 12.9211C8.12043 12.9944 8.0653 13.0259 8.01883 12.9931C7.96938 12.9583 7.95538 12.9702 7.98394 13.0229C8.01016 13.0712 8.00128 13.1321 7.96426 13.1582C7.8083 13.2681 7.80873 13.0075 7.96469 12.8734C8.15319 12.7113 8.21067 12.7265 8.14516 12.9211ZM74.5755 13.1823C74.4979 13.2708 74.4447 13.1301 74.5004 12.9837C74.5533 12.845 74.5571 12.8451 74.5865 12.9866C74.6035 13.0681 74.5985 13.1561 74.5755 13.1823ZM5.61351 13.284C5.61351 13.3286 5.58154 13.365 5.54246 13.365C5.50338 13.365 5.47141 13.3286 5.47141 13.284C5.47141 13.2395 5.50338 13.203 5.54246 13.203C5.58154 13.203 5.61351 13.2395 5.61351 13.284ZM7.46086 15.6687C7.46086 15.6884 7.42889 15.727 7.38981 15.7545C7.35073 15.782 7.31876 15.7659 7.31876 15.7188C7.31876 15.6716 7.35073 15.633 7.38981 15.633C7.42889 15.633 7.46086 15.649 7.46086 15.6687ZM75.5284 18.468C75.5284 18.5126 75.4965 18.549 75.4574 18.549C75.4183 18.549 75.3863 18.5126 75.3863 18.468C75.3863 18.4235 75.4183 18.387 75.4574 18.387C75.4965 18.387 75.5284 18.4235 75.5284 18.468ZM7.01828 18.9135C7.01018 19.0249 6.98041 19.116 6.9522 19.116C6.86559 19.116 6.80662 18.9528 6.84839 18.8286C6.91348 18.6353 7.03405 18.6955 7.01828 18.9135ZM80.8524 19.0553C80.8496 19.111 80.8227 19.2283 80.7926 19.3162C80.7433 19.46 80.7341 19.4541 80.7011 19.2574C80.681 19.1371 80.6813 19.0197 80.7017 18.9964C80.7699 18.9186 80.8574 18.9528 80.8524 19.0553ZM73.6103 19.44C73.6378 19.4623 73.6011 19.5506 73.5286 19.6364C73.4561 19.7222 73.3969 19.7517 73.3969 19.702C73.3969 19.6522 73.4259 19.5911 73.4613 19.5662C73.4966 19.5412 73.5123 19.4389 73.496 19.3387C73.4793 19.2359 73.4868 19.2094 73.5133 19.278C73.5391 19.3448 73.5828 19.4177 73.6103 19.44ZM76.9495 19.521C76.9495 19.5656 76.9156 19.602 76.8742 19.602C76.8329 19.602 76.8187 19.5656 76.8429 19.521C76.8671 19.4765 76.9009 19.44 76.9181 19.44C76.9354 19.44 76.9495 19.4765 76.9495 19.521ZM6.13894 20.2638C6.10441 20.3275 6.1263 20.3416 6.2058 20.3068C6.29064 20.2697 6.32403 20.2988 6.32403 20.4097C6.32403 20.4949 6.29206 20.587 6.25298 20.6145C6.2139 20.642 6.18193 20.6259 6.18193 20.5788C6.18193 20.5316 6.11798 20.493 6.03983 20.493C5.86454 20.493 5.85509 20.3674 6.02206 20.2565C6.18427 20.1488 6.20069 20.1498 6.13894 20.2638ZM73.7296 20.3462C73.707 20.4108 73.6901 20.3916 73.6867 20.2972C73.6837 20.2118 73.7004 20.1641 73.724 20.191C73.7476 20.2178 73.7502 20.2877 73.7296 20.3462ZM75.0896 21.6247C75.1111 21.698 75.0834 21.7172 75.0052 21.683C74.9262 21.6484 74.889 21.6754 74.889 21.7672C74.889 21.8696 74.869 21.8796 74.8067 21.8086C74.7445 21.7376 74.747 21.6839 74.8173 21.5872C74.9217 21.444 75.0416 21.4605 75.0896 21.6247ZM80.8703 22.6166C80.8194 22.6747 80.7863 22.6794 80.7863 22.6287C80.7863 22.5206 80.8703 22.4248 80.9177 22.4789C80.9379 22.5019 80.9166 22.5638 80.8703 22.6166ZM73.2753 26.8111C73.2242 27.034 73.1837 27.0139 73.1837 26.7657C73.1837 26.6518 73.2127 26.5789 73.2481 26.6038C73.2835 26.6287 73.2958 26.7221 73.2753 26.8111ZM75.1021 26.8408C75.1021 26.8965 75.0613 27.0057 75.0114 27.0836C74.9289 27.2121 74.9192 27.2053 74.905 27.0099C74.8964 26.8916 74.9075 26.7613 74.9296 26.7205C74.9815 26.6249 75.1021 26.709 75.1021 26.8408ZM80.3835 27.3173C80.3219 27.6864 80.2889 27.6981 80.2889 27.351C80.2889 27.1876 80.3201 27.054 80.3582 27.054C80.398 27.054 80.4088 27.166 80.3835 27.3173ZM74.7599 29.4206C74.7089 29.4787 74.6758 29.4834 74.6758 29.4327C74.6758 29.3246 74.7599 29.2288 74.8073 29.2829C74.8274 29.3059 74.8061 29.3678 74.7599 29.4206ZM6.75219 29.7276C6.71531 29.9064 6.69116 29.9459 6.68654 29.8349C6.67922 29.6584 6.74942 29.375 6.78921 29.4203C6.80093 29.4337 6.78423 29.572 6.75219 29.7276ZM7.15264 29.7473C7.13296 29.803 7.11683 29.7574 7.11683 29.646C7.11683 29.5346 7.13296 29.4891 7.15264 29.5448C7.17239 29.6005 7.17239 29.6916 7.15264 29.7473ZM6.51132 29.8491C6.39111 29.9861 6.36183 29.9199 6.44006 29.6877C6.47011 29.5984 6.50862 29.581 6.55623 29.6353C6.6039 29.6897 6.58898 29.7605 6.51132 29.8491ZM7.09814 30.3099C7.00116 30.5166 6.98339 30.4926 7.02048 30.2048C7.04215 30.0364 7.07157 29.9882 7.10979 30.0587C7.14113 30.1164 7.13587 30.2295 7.09814 30.3099ZM6.75034 30.9015C6.75034 31.0129 6.71837 31.104 6.67929 31.104C6.64021 31.104 6.60824 31.0129 6.60824 30.9015C6.60824 30.7901 6.64021 30.699 6.67929 30.699C6.71837 30.699 6.75034 30.7901 6.75034 30.9015ZM74.3561 30.942C74.3802 30.9866 74.3661 31.023 74.3247 31.023C74.2834 31.023 74.2495 30.9866 74.2495 30.942C74.2495 30.8975 74.2636 30.861 74.2808 30.861C74.2981 30.861 74.3319 30.8975 74.3561 30.942ZM6.82139 32.1117C6.82139 32.1314 6.78942 32.17 6.75034 32.1975C6.71126 32.225 6.67929 32.2089 6.67929 32.1618C6.67929 32.1146 6.71126 32.076 6.75034 32.076C6.78942 32.076 6.82139 32.092 6.82139 32.1117ZM6.9635 33.2553C6.9635 33.3247 6.93103 33.3586 6.89131 33.3307C6.85159 33.3027 6.83745 33.2459 6.85998 33.2044C6.92087 33.0921 6.9635 33.113 6.9635 33.2553ZM7.43066 34.0004C7.34497 34.0982 7.30412 33.9371 7.35954 33.7201L7.41745 33.4935L7.44452 33.7236C7.45937 33.8502 7.45319 33.9748 7.43066 34.0004ZM74.6048 33.9978C74.6048 34.1513 74.5128 34.0692 74.4905 33.8957C74.4821 33.8301 74.5043 33.7968 74.54 33.8219C74.5756 33.847 74.6048 33.9261 74.6048 33.9978ZM6.41896 34.2023C6.40119 34.2357 6.42287 34.263 6.46699 34.263C6.5136 34.263 6.50067 34.3161 6.43622 34.3897C6.37512 34.4593 6.29298 34.4937 6.25362 34.466C6.17298 34.4091 5.87676 34.6171 5.93843 34.6874C5.96032 34.7124 5.94774 34.7543 5.91051 34.7805C5.80699 34.8534 5.66744 34.6141 5.71462 34.4445C5.77686 34.221 6.25163 33.9315 6.36325 34.0489C6.41164 34.0999 6.43672 34.1688 6.41896 34.2023ZM6.72782 34.1162C6.70515 34.1808 6.68831 34.1616 6.6849 34.0672C6.68185 33.9818 6.69862 33.9341 6.72221 33.961C6.7458 33.9878 6.74835 34.0577 6.72782 34.1162ZM74.5181 35.4495C74.4279 35.5524 74.4035 35.5515 74.3241 35.4424C74.2476 35.3372 74.2597 35.3063 74.4013 35.2457C74.6018 35.1598 74.6691 35.2773 74.5181 35.4495ZM6.82139 35.5995C6.82139 35.6663 6.79042 35.721 6.75255 35.721C6.71475 35.721 6.70217 35.6663 6.72462 35.5995C6.74715 35.5327 6.77812 35.478 6.79347 35.478C6.80882 35.478 6.82139 35.5327 6.82139 35.5995ZM5.90149 36.8753C5.89943 36.9087 5.89772 37.034 5.89772 37.1538V37.3715L5.7564 37.1986C5.60399 37.0121 5.63447 36.7498 5.80386 36.7903C5.85957 36.8036 5.90355 36.8418 5.90149 36.8753ZM1.28817 37.6866C1.21797 37.766 1.20987 37.7567 1.24838 37.6413C1.27509 37.5614 1.31481 37.5164 1.3367 37.5414C1.35858 37.5663 1.33677 37.6316 1.28817 37.6866ZM74.0353 38.1713C74.0346 38.227 74.007 38.3214 73.9738 38.3812C73.9296 38.4606 73.9038 38.4333 73.8781 38.28C73.8542 38.1371 73.8739 38.07 73.9397 38.07C73.9928 38.07 74.0359 38.1156 74.0353 38.1713ZM7.89698 39.3108C7.83502 39.3967 7.8179 39.5249 7.8493 39.6676C7.89243 39.8637 7.90664 39.8732 7.96831 39.7475C8.00682 39.6691 8.02835 39.5086 8.01606 39.3909C7.99595 39.1978 7.9843 39.19 7.89698 39.3108ZM73.2796 40.9481C73.2241 41.113 73.1906 41.0966 73.2029 40.9106C73.2086 40.8246 73.2372 40.7711 73.2664 40.7917C73.2957 40.8123 73.3016 40.8827 73.2796 40.9481ZM4.903 41.148C4.903 41.1926 4.87102 41.229 4.83195 41.229C4.79287 41.229 4.76089 41.1926 4.76089 41.148C4.76089 41.1035 4.79287 41.067 4.83195 41.067C4.87102 41.067 4.903 41.1035 4.903 41.148ZM75.2442 41.8317C75.2442 41.8514 75.2123 41.89 75.1732 41.9175C75.1341 41.945 75.1021 41.9289 75.1021 41.8818C75.1021 41.8346 75.1341 41.796 75.1732 41.796C75.2123 41.796 75.2442 41.812 75.2442 41.8317ZM7.60296 42.2376C7.60296 42.2971 7.555 42.3666 7.49639 42.3923C7.3827 42.4421 7.36338 42.3739 7.4328 42.1676C7.48139 42.0231 7.60296 42.0731 7.60296 42.2376ZM7.22518 42.2972C7.20252 42.3618 7.18568 42.3426 7.18227 42.2482C7.17921 42.1628 7.19598 42.1151 7.21957 42.142C7.24316 42.1688 7.24572 42.2387 7.22518 42.2972ZM73.3258 45.198C73.3258 45.2426 73.3578 45.279 73.3969 45.279C73.436 45.279 73.4679 45.2426 73.4679 45.198C73.4679 45.1535 73.436 45.117 73.3969 45.117C73.3578 45.117 73.3258 45.1535 73.3258 45.198ZM74.1843 45.5546C74.1372 45.6191 74.1045 45.7203 74.1115 45.7793C74.143 46.0441 74.11 46.1036 74.0008 45.9791C73.8626 45.8215 73.8638 45.603 74.003 45.603C74.0629 45.603 74.1308 45.5468 74.1539 45.478C74.1771 45.4092 74.2126 45.3719 74.2329 45.3951C74.2531 45.4182 74.2312 45.4899 74.1843 45.5546ZM73.3068 46.1631C73.2811 46.2751 73.3017 46.332 73.368 46.332C73.4814 46.332 73.4932 46.2598 73.4056 46.1024C73.3599 46.0202 73.3363 46.0348 73.3068 46.1631ZM4.28414 46.818C4.26367 46.9071 4.22552 46.98 4.1993 46.98C4.17308 46.98 4.14686 46.9071 4.14097 46.818C4.13507 46.7289 4.17322 46.656 4.2258 46.656C4.28627 46.656 4.30765 46.7154 4.28414 46.818ZM7.5673 46.8788C7.52125 47.007 7.4961 47.1532 7.46995 47.4458C7.46491 47.5015 7.40892 47.547 7.3454 47.547C7.25396 47.547 7.23918 47.4943 7.27435 47.2939C7.29879 47.1546 7.31876 46.9724 7.31876 46.8889C7.31876 46.7884 7.36942 46.737 7.46846 46.737C7.58307 46.737 7.60623 46.7702 7.5673 46.8788ZM73.1827 48.8633C73.1818 49.0056 73.1672 49.0197 73.1163 48.9279C73.0804 48.8632 73.0668 48.7812 73.086 48.7456C73.1476 48.6319 73.1837 48.6759 73.1827 48.8633ZM73.4217 49.1291C73.3653 49.2965 73.3258 49.2768 73.3258 49.0812C73.3258 48.9895 73.3564 48.936 73.3938 48.9623C73.4311 48.9886 73.4437 49.0637 73.4217 49.1291ZM73.8232 51.759C73.8232 51.8036 73.7912 51.84 73.7521 51.84C73.7131 51.84 73.6811 51.8036 73.6811 51.759C73.6811 51.7145 73.7131 51.678 73.7521 51.678C73.7912 51.678 73.8232 51.7145 73.8232 51.759ZM5.96877 53.136C5.96877 53.1806 5.9368 53.217 5.89772 53.217C5.85864 53.217 5.82667 53.1806 5.82667 53.136C5.82667 53.0915 5.85864 53.055 5.89772 53.055C5.9368 53.055 5.96877 53.0915 5.96877 53.136ZM6.28353 59.5258C6.30492 59.5653 6.27735 59.6403 6.22229 59.6925C6.14036 59.7699 6.12907 59.7568 6.16026 59.6206C6.20246 59.4367 6.22555 59.4189 6.28353 59.5258ZM5.47141 60.0615C5.54388 60.161 5.53898 60.183 5.44455 60.183C5.38118 60.183 5.32931 60.1283 5.32931 60.0615C5.32931 59.9947 5.34139 59.94 5.35617 59.94C5.37087 59.94 5.42274 59.9947 5.47141 60.0615ZM5.79114 60.426C5.77608 60.5151 5.79391 60.588 5.83072 60.588C5.8676 60.588 5.89772 60.6427 5.89772 60.7095C5.89772 60.8027 5.86347 60.792 5.75086 60.6636C5.63412 60.5305 5.62133 60.4723 5.68855 60.3801C5.80209 60.2241 5.82361 60.2337 5.79114 60.426ZM74.3561 62.694C74.3802 62.7386 74.3661 62.775 74.3247 62.775C74.2834 62.775 74.2495 62.7386 74.2495 62.694C74.2495 62.6495 74.2636 62.613 74.2808 62.613C74.2981 62.613 74.3319 62.6495 74.3561 62.694ZM76.8784 63.504C76.8784 63.5486 76.8644 63.585 76.8471 63.585C76.8298 63.585 76.796 63.5486 76.7718 63.504C76.7477 63.4595 76.7618 63.423 76.8032 63.423C76.8445 63.423 76.8784 63.4595 76.8784 63.504ZM73.4446 67.0698C73.4379 67.2247 73.4004 67.3515 73.3614 67.3515C73.2833 67.3515 73.2375 66.8565 73.2976 66.663C73.3599 66.4628 73.4591 66.7374 73.4446 67.0698ZM74.2042 70.0245C74.2266 70.0913 74.2175 70.146 74.1839 70.146C74.1502 70.146 74.1042 70.0913 74.0817 70.0245C74.0592 69.9577 74.0684 69.903 74.102 69.903C74.1357 69.903 74.1817 69.9577 74.2042 70.0245ZM8.1399 70.4071C7.9806 70.6663 8.00362 70.7716 8.17138 70.551C8.30382 70.3769 8.35498 70.227 8.28201 70.227C8.26467 70.227 8.20072 70.308 8.1399 70.4071ZM39.5052 72.171C39.5052 72.2156 39.4732 72.252 39.4341 72.252C39.3951 72.252 39.3631 72.2156 39.3631 72.171C39.3631 72.1265 39.3951 72.09 39.4341 72.09C39.4732 72.09 39.5052 72.1265 39.5052 72.171ZM29.3208 72.5963C29.3011 72.652 29.285 72.6064 29.285 72.495C29.285 72.3836 29.3011 72.3381 29.3208 72.3938C29.3405 72.4495 29.3405 72.5406 29.3208 72.5963ZM39.5763 72.657C39.5763 72.7907 39.5639 72.9 39.5488 72.9C39.5337 72.9 39.5073 72.7907 39.4901 72.657C39.4729 72.5234 39.4852 72.414 39.5175 72.414C39.5498 72.414 39.5763 72.5234 39.5763 72.657ZM57.8125 72.7583C57.7929 72.814 57.7767 72.7684 57.7767 72.657C57.7767 72.5456 57.7929 72.5001 57.8125 72.5558C57.8323 72.6115 57.8323 72.7026 57.8125 72.7583ZM61.0077 72.9421C60.9836 73.0137 60.9319 73.0498 60.893 73.0224C60.8479 72.9906 60.8543 72.9326 60.9103 72.8634C61.0187 72.7292 61.0664 72.7677 61.0077 72.9421ZM57.4588 73.0772C57.4361 73.1418 57.4193 73.1226 57.4159 73.0282C57.4128 72.9428 57.4296 72.8951 57.4532 72.922C57.4767 72.9488 57.4793 73.0187 57.4588 73.0772ZM10.9143 73.283C10.8421 73.3654 10.7825 73.2414 10.8417 73.1321C10.8865 73.0495 10.9032 73.0495 10.9273 73.1318C10.9437 73.1881 10.9378 73.2562 10.9143 73.283ZM18.3318 73.1787C18.3318 73.1984 18.2998 73.237 18.2607 73.2645C18.2216 73.292 18.1897 73.2759 18.1897 73.2288C18.1897 73.1816 18.2216 73.143 18.2607 73.143C18.2998 73.143 18.3318 73.159 18.3318 73.1787ZM46.1648 73.1919C46.1412 73.2188 46.0799 73.2217 46.0287 73.1983C45.972 73.1725 45.9888 73.1533 46.0716 73.1494C46.1465 73.1459 46.1884 73.165 46.1648 73.1919ZM38.3095 73.629C38.2787 73.9967 38.1876 74.0734 38.1967 73.724C38.2018 73.5292 38.2683 73.305 38.3211 73.305C38.3297 73.305 38.3244 73.4508 38.3095 73.629ZM40.2628 73.5683C40.2431 73.624 40.2269 73.5784 40.2269 73.467C40.2269 73.3556 40.2431 73.3101 40.2628 73.3658C40.2825 73.4215 40.2825 73.5126 40.2628 73.5683ZM46.042 73.4265C46.042 73.4933 46.011 73.548 45.9731 73.548C45.9353 73.548 45.9227 73.4933 45.9452 73.4265C45.9677 73.3597 45.9987 73.305 46.014 73.305C46.0294 73.305 46.042 73.3597 46.042 73.4265ZM10.6357 73.5632C10.613 73.6278 10.5962 73.6086 10.5928 73.5142C10.5897 73.4288 10.6065 73.3811 10.6301 73.408C10.6536 73.4348 10.6562 73.5047 10.6357 73.5632ZM47.291 73.5023C47.3548 73.5751 47.3662 73.6376 47.3215 73.6691C47.282 73.6969 47.2498 73.7903 47.2498 73.8768C47.2498 73.9633 47.2199 74.034 47.1832 74.034C47.1465 74.034 47.1191 73.9702 47.1222 73.8923C47.1253 73.8143 47.1195 73.7141 47.1094 73.6695C47.0811 73.5453 47.103 73.386 47.1483 73.386C47.1707 73.386 47.2348 73.4383 47.291 73.5023ZM18.687 73.791C18.687 73.8356 18.6531 73.872 18.6118 73.872C18.5704 73.872 18.5563 73.8356 18.5805 73.791C18.6046 73.7465 18.6384 73.71 18.6557 73.71C18.673 73.71 18.687 73.7465 18.687 73.791ZM40.9872 74.2973C40.8997 74.4853 40.8932 74.4793 40.8758 74.1957C40.8635 73.995 40.8776 73.9703 40.9571 74.0541C41.0231 74.1237 41.0325 74.2 40.9872 74.2973ZM40.4289 74.3985C40.4289 74.4653 40.3979 74.52 40.36 74.52C40.3222 74.52 40.3096 74.4653 40.3321 74.3985C40.3546 74.3317 40.3856 74.277 40.4009 74.277C40.4163 74.277 40.4289 74.3317 40.4289 74.3985ZM67.6192 74.6972C67.5965 74.7618 67.5797 74.7426 67.5763 74.6482C67.5732 74.5628 67.59 74.5151 67.6136 74.542C67.6371 74.5688 67.6397 74.6387 67.6192 74.6972ZM41.1361 74.851C41.0925 74.9439 41.0395 75.0001 41.0182 74.976C40.9597 74.9092 41.0535 74.682 41.1397 74.682C41.1922 74.682 41.1911 74.7338 41.1361 74.851ZM9.02293 75.2335C9.02194 75.3515 9.01228 75.3537 8.95295 75.249C8.863 75.0904 8.863 74.9832 8.95295 75.0465C8.99203 75.074 9.0235 75.1582 9.02293 75.2335ZM49.2878 77.9372C49.2652 78.0018 49.2483 77.9826 49.2449 77.8882C49.2418 77.8028 49.2586 77.7551 49.2822 77.782C49.3058 77.8088 49.3084 77.8787 49.2878 77.9372ZM59.6217 80.0496C59.5515 80.129 59.5434 80.1197 59.5819 80.0043C59.6086 79.9244 59.6483 79.8794 59.6702 79.9044C59.6921 79.9293 59.6703 79.9946 59.6217 80.0496Z" fill="#55C52C"/>
</svg>
